<svg xmlns="http://www.w3.org/2000/svg" aria-hidden="true" style="position:absolute;width:0;height:0;overflow:hidden"><defs><symbol id="icon-bar_chart-24px-1" viewBox="0 0 32 32"><path fill="#52555f" d="M6.667 12.267h4v13.067h-4V12.267zm7.466-5.6h3.733v18.667h-3.733V6.667zM21.6 17.333h3.733v8H21.6v-8z" style="fill:var(--color1, #52555f)"/></symbol><symbol id="icon-calculator" viewBox="0 0 32 32"><path fill="#52555f" d="M27.25 0H4.75a2.816 2.816 0 0 0-2.813 2.813v26.375A2.815 2.815 0 0 0 4.75 32h22.5a2.816 2.816 0 0 0 2.813-2.812V2.813A2.816 2.816 0 0 0 27.25 0zm.938 29.188a.938.938 0 0 1-.938.937H4.75a.938.938 0 0 1-.938-.937V2.813a.94.94 0 0 1 .938-.938h22.5a.94.94 0 0 1 .938.938v26.375z" style="fill:var(--color1, #52555f)"/><path fill="#52555f" d="M25.375 3.75H6.625a.938.938 0 0 0-.938.938v7.625c0 .518.42.938.938.938h18.75c.518 0 .937-.42.937-.938V4.688a.938.938 0 0 0-.937-.938zm-.938 7.625H7.562v-5.75h16.875v5.75zM10.375 15.125h-3.75a.938.938 0 0 0-.938.938v3.75c0 .518.42.938.938.938h3.75c.518 0 .938-.42.938-.938v-3.75a.938.938 0 0 0-.938-.938zm-.937 3.75H7.563V17h1.875v1.875zM10.375 22.625h-3.75a.938.938 0 0 0-.938.938v3.75c0 .518.42.937.938.937h3.75c.518 0 .938-.42.938-.937v-3.75a.938.938 0 0 0-.938-.938zm-.937 3.75H7.563V24.5h1.875v1.875zM17.875 15.125h-3.75a.938.938 0 0 0-.938.938v3.75c0 .518.42.938.938.938h3.75c.518 0 .937-.42.937-.938v-3.75a.938.938 0 0 0-.937-.938zm-.938 3.75h-1.875V17h1.875v1.875zM17.875 22.625h-3.75a.938.938 0 0 0-.938.938v3.75c0 .518.42.937.938.937h3.75c.518 0 .937-.42.937-.937v-3.75a.938.938 0 0 0-.937-.938zm-.938 3.75h-1.875V24.5h1.875v1.875zM25.375 15.125h-3.75a.937.937 0 0 0-.937.938v11.25c0 .518.42.937.937.937h3.75c.518 0 .937-.42.937-.937v-11.25a.938.938 0 0 0-.937-.938zm-.938 11.25h-1.875V17h1.875v9.375z" style="fill:var(--color1, #52555f)"/></symbol><symbol id="icon-calendar" viewBox="0 0 32 32"><path fill="#52555f" d="M27.961 3.307h-2.099v-.514a.938.938 0 1 0-1.874 0v.514h-2.587v-.514a.938.938 0 0 0-1.875 0v.514h-2.587v-.514a.938.938 0 1 0-1.875 0v.514h-2.587v-.514a.938.938 0 0 0-1.876 0v.514H8.014v-.514a.938.938 0 0 0-1.876 0v.514H4.039A4.044 4.044 0 0 0 0 7.346v18.758a4.044 4.044 0 0 0 4.039 4.039H27.96a4.044 4.044 0 0 0 4.039-4.039V7.346a4.044 4.044 0 0 0-4.039-4.039zm2.164 22.798a2.167 2.167 0 0 1-2.164 2.164H4.04a2.167 2.167 0 0 1-2.164-2.164V10.772h28.25v15.333zm0-17.208H1.875v-1.55c0-1.193.971-2.164 2.164-2.164h2.099v.362a.938.938 0 0 0 1.876 0v-.362h2.587v.362a.938.938 0 0 0 1.876 0v-.362h2.587v.362a.938.938 0 0 0 1.875 0v-.362h2.587v.362a.938.938 0 1 0 1.875 0v-.362h2.587v.362a.938.938 0 1 0 1.874 0v-.362h2.099c1.193 0 2.164.971 2.164 2.164v1.55z" style="fill:var(--color1, #52555f)"/><path fill="#52555f" d="M10.451 12.771H6.752a.938.938 0 0 0-.938.938v3.828c0 .518.42.937.938.937h3.699c.518 0 .938-.42.938-.937v-3.828a.938.938 0 0 0-.938-.938zm-.938 3.827H7.689v-1.952h1.824v1.952zM17.85 12.771h-3.699a.938.938 0 0 0-.938.938v3.828c0 .518.42.937.938.937h3.699c.518 0 .937-.42.937-.937v-3.828a.938.938 0 0 0-.937-.938zm-.938 3.827h-1.824v-1.952h1.824v1.952zM25.248 12.771h-3.699a.937.937 0 0 0-.937.938v3.828c0 .518.42.937.937.937h3.699c.518 0 .937-.42.937-.937v-3.828a.938.938 0 0 0-.937-.938zm-.937 3.827h-1.824v-1.952h1.824v1.952zM10.451 20.041H6.752a.938.938 0 0 0-.938.938v3.827c0 .518.42.938.938.938h3.699c.518 0 .938-.42.938-.938v-3.827a.938.938 0 0 0-.938-.938zm-.938 3.827H7.689v-1.952h1.824v1.952zM17.85 20.041h-3.699a.938.938 0 0 0-.938.938v3.827c0 .518.42.938.938.938h3.699c.518 0 .937-.42.937-.938v-3.827a.938.938 0 0 0-.937-.938zm-.938 3.827h-1.824v-1.952h1.824v1.952zM25.248 20.041h-3.699a.937.937 0 0 0-.937.938v3.827c0 .518.42.938.937.938h3.699c.518 0 .937-.42.937-.938v-3.827a.938.938 0 0 0-.937-.938zm-.937 3.827h-1.824v-1.952h1.824v1.952z" style="fill:var(--color1, #52555f)"/></symbol><symbol id="icon-logout-1" viewBox="0 0 32 32"><path fill="#cbccd0" d="M20 28H4V4h16v2h4V0H0v32h24v-6h-4v2z" style="fill:var(--color2, #cbccd0)"/><path fill="#cbccd0" d="m24.586 8.586-2.828 2.828L24.344 14H14v4h10.344l-2.586 2.586 2.828 2.828L32 16l-7.414-7.414z" style="fill:var(--color2, #cbccd0)"/></symbol><symbol id="icon-Vector-4" viewBox="0 0 32 32"><path fill="#52555f" d="m28.992 7.153-.706-2.118a1.97 1.97 0 0 0-1.871-1.349h-5.938V1.753C20.477.787 19.691 0 18.725 0h-5.438c-.966 0-1.752.786-1.752 1.753v1.933H5.597c-.85 0-1.603.542-1.872 1.349l-.707 2.118A1.588 1.588 0 0 0 4.522 9.24h.739l1.625 20.1A2.908 2.908 0 0 0 9.768 32h12.804a2.909 2.909 0 0 0 2.882-2.66l1.625-20.1h.409c.508 0 .989-.246 1.286-.658s.379-.947.218-1.429zM13.409 1.875H18.6v1.811h-5.191V1.875zm10.176 27.314a1.023 1.023 0 0 1-1.013.936H9.768c-.525 0-.97-.411-1.013-.936L7.141 9.24h18.056l-1.613 19.949zM4.924 7.365l.579-1.737a.098.098 0 0 1 .093-.067h20.818c.042 0 .079.027.093.067l.579 1.737H4.924z" style="fill:var(--color1, #52555f)"/></symbol></defs></svg>