<svg xmlns="http://www.w3.org/2000/svg" aria-hidden="true" style="position:absolute;width:0;height:0;overflow:hidden"><defs><symbol id="icon-google" viewBox="0 0 88 32"><path fill="#f6f7fb" d="M15.582.696h55.097c7.684 0 13.913 6.229 13.913 13.913s-6.229 13.913-13.913 13.913H15.582c-7.684 0-13.913-6.229-13.913-13.913S7.898.696 15.582.696z" style="fill:var(--color1, #f6f7fb)"/><path d="M40.019 14.549v2.644c-.098.13-.252.273-.461.428-.206.152-.48.284-.823.395s-.769.166-1.279.166c-.434 0-.832-.073-1.194-.219a2.61 2.61 0 0 1-.937-.652 2.982 2.982 0 0 1-.604-1.041 4.281 4.281 0 0 1-.214-1.408v-.48c0-.523.065-.989.195-1.398.133-.412.323-.761.571-1.046s.545-.501.894-.647c.352-.149.75-.223 1.194-.223.567 0 1.037.095 1.408.285.374.187.663.447.865.78s.331.713.385 1.141h-1.17a1.839 1.839 0 0 0-.224-.647 1.136 1.136 0 0 0-.466-.447c-.2-.111-.46-.166-.78-.166-.276 0-.518.052-.728.157s-.384.258-.523.461c-.136.203-.239.45-.309.742s-.105.625-.105.999v.49c0 .38.04.718.119 1.013.082.295.2.544.352.747.155.203.344.357.566.461.222.102.472.152.751.152.273 0 .496-.022.671-.067a1.62 1.62 0 0 0 .414-.166c.105-.067.185-.13.243-.19v-1.374h-1.441v-.889h2.63zm1.184 1.022v-.109c0-.371.054-.715.162-1.032.108-.32.263-.598.466-.832.206-.238.456-.422.751-.552.298-.133.634-.2 1.008-.2.377 0 .713.067 1.008.2.298.13.55.314.756.552.206.235.363.512.471.832.108.317.162.661.162 1.032v.109c0 .371-.054.715-.162 1.032s-.265.594-.471.832a2.184 2.184 0 0 1-.751.552c-.295.13-.629.195-1.003.195a2.51 2.51 0 0 1-1.013-.195 2.172 2.172 0 0 1-.751-.552c-.206-.238-.363-.515-.471-.832s-.162-.661-.162-1.032zm1.146-.109v.109c0 .231.024.45.071.656s.122.387.224.542c.102.155.231.277.39.366s.347.133.566.133c.212 0 .396-.044.552-.133.159-.089.288-.211.39-.366s.176-.336.224-.542c.051-.206.076-.425.076-.656v-.109a2.65 2.65 0 0 0-.076-.647 1.69 1.69 0 0 0-.228-.547 1.09 1.09 0 0 0-.946-.509c-.215 0-.403.046-.561.138-.155.089-.284.212-.385.371s-.176.341-.224.547a2.857 2.857 0 0 0-.071.647zm4.574.109v-.109c0-.371.054-.715.162-1.032.108-.32.263-.598.466-.832.206-.238.457-.422.751-.552.298-.133.634-.2 1.008-.2.377 0 .713.067 1.008.2.298.13.55.314.756.552.206.235.363.512.471.832.108.317.162.661.162 1.032v.109c0 .371-.054.715-.162 1.032s-.265.594-.471.832a2.194 2.194 0 0 1-.751.552c-.295.13-.629.195-1.003.195a2.51 2.51 0 0 1-1.013-.195 2.172 2.172 0 0 1-.751-.552c-.206-.238-.363-.515-.471-.832s-.162-.661-.162-1.032zm1.146-.109v.109c0 .231.024.45.071.656s.122.387.224.542c.101.155.231.277.39.366s.347.133.566.133c.212 0 .396-.044.552-.133.158-.089.288-.211.39-.366s.176-.336.224-.542c.051-.206.076-.425.076-.656v-.109a2.65 2.65 0 0 0-.076-.647 1.668 1.668 0 0 0-.228-.547 1.09 1.09 0 0 0-.946-.509c-.215 0-.403.046-.561.138-.155.089-.284.212-.385.371s-.176.341-.224.547a2.802 2.802 0 0 0-.071.647zm8.089-2.52h1.041v5.003c0 .463-.098.856-.295 1.179s-.471.569-.823.737a2.764 2.764 0 0 1-1.222.257 2.872 2.872 0 0 1-1.35-.362 1.723 1.723 0 0 1-.556-.49l.537-.675c.184.219.387.379.609.48s.455.152.699.152c.263 0 .487-.049.671-.147.187-.095.331-.236.433-.423s.152-.415.152-.685v-3.861l.105-1.165zm-3.495 2.629v-.1c0-.39.048-.745.143-1.065.095-.323.231-.601.409-.832.178-.235.393-.414.647-.537.254-.127.541-.19.861-.19.333 0 .617.06.851.181.238.12.436.293.594.518.158.222.282.488.371.799.092.308.16.65.204 1.027v.319c-.041.368-.111.704-.209 1.008s-.228.567-.39.789-.361.393-.599.514c-.235.12-.512.181-.832.181-.314 0-.598-.065-.851-.195a1.932 1.932 0 0 1-.647-.547 2.58 2.58 0 0 1-.409-.827 3.643 3.643 0 0 1-.143-1.041zm1.146-.1v.1c0 .235.022.453.067.656.047.203.119.382.214.537.098.152.222.273.371.361.152.086.331.128.537.128.27 0 .49-.057.661-.171.174-.114.308-.268.4-.461.095-.197.162-.415.2-.656v-.861a2.114 2.114 0 0 0-.119-.523 1.393 1.393 0 0 0-.233-.423.961.961 0 0 0-.371-.285 1.231 1.231 0 0 0-.528-.105c-.206 0-.385.044-.537.133s-.277.211-.376.366c-.095.155-.166.336-.214.542s-.071.426-.071.661zm6.001-4.688v7.304h-1.151v-7.304h1.151zm3.719 7.399a2.76 2.76 0 0 1-1.032-.185 2.29 2.29 0 0 1-.78-.528c-.212-.225-.376-.49-.49-.794s-.171-.633-.171-.984v-.19c0-.403.059-.767.176-1.094s.281-.606.49-.837c.209-.235.457-.414.742-.537s.594-.185.927-.185c.368 0 .69.062.965.185s.504.298.685.523c.184.222.32.487.409.794.092.307.138.647.138 1.018v.49h-3.975v-.823h2.844v-.09a1.605 1.605 0 0 0-.124-.58c-.073-.181-.185-.327-.338-.438s-.355-.166-.609-.166a1.002 1.002 0 0 0-.875.471 1.833 1.833 0 0 0-.228.552 3.084 3.084 0 0 0-.076.718v.19c0 .225.03.434.09.628.063.19.155.357.276.499s.266.255.438.338c.171.079.366.119.585.119.276 0 .521-.055.737-.166s.403-.268.561-.471l.604.585a2.178 2.178 0 0 1-1.084.823 2.594 2.594 0 0 1-.885.138z" style="fill:var(--color2, #000)"/><path fill="#2196f3" d="M27.266 13.45c.053 0 .096.045.096.101v1.058a6.6 6.6 0 0 1-.102 1.159c-.521 2.918-2.973 5.123-5.913 5.102-3.299-.024-5.939-2.817-5.931-6.275.007-3.451 2.679-6.247 5.973-6.247 1.614 0 3.078.671 4.154 1.761.039.039.04.104.002.144l-1.428 1.497a.092.092 0 0 1-.134.002 3.661 3.661 0 0 0-2.593-1.087c-2.076 0-3.748 1.74-3.762 3.916-.014 2.19 1.676 3.97 3.762 3.97 1.693 0 3.124-1.172 3.597-2.784h-3.5a.098.098 0 0 1-.096-.101V13.55c0-.056.043-.101.096-.101h5.781z" style="fill:var(--color3, #2196f3)"/><path fill="#1e88e5" d="M27.265 13.45h-.721c.053 0 .096.045.096.101v1.058a6.6 6.6 0 0 1-.102 1.159c-.497 2.784-2.752 4.919-5.511 5.091.106.007.212.01.319.011 2.94.021 5.392-2.184 5.913-5.102a6.6 6.6 0 0 0 .102-1.159v-1.058a.098.098 0 0 0-.096-.101z" style="fill:var(--color4, #1e88e5)"/><path fill="#f44336" d="m17.971 12.957-1.814-1.374c1.018-1.929 2.979-3.236 5.231-3.236 1.614 0 3.078.671 4.154 1.761.039.039.04.104.002.144l-1.428 1.497a.093.093 0 0 1-.134.002 3.661 3.661 0 0 0-2.593-1.087c-1.515 0-2.821.939-3.417 2.292z" style="fill:var(--color5, #f44336)"/><path fill="#e53935" d="m17.447 12.561.524.397c.544-1.235 1.68-2.124 3.026-2.27l.03-.004a3.556 3.556 0 0 0-.36-.018c-1.369 0-2.561.756-3.22 1.895zM24.821 10.109c.039.039.04.104.002.144l-1.159 1.215c.111.089.217.183.318.284a.092.092 0 0 0 .134-.002l1.428-1.497a.104.104 0 0 0-.002-.144c-1.075-1.09-2.54-1.761-4.154-1.761-.121 0-.241.004-.361.012a5.827 5.827 0 0 1 3.793 1.75z" style="fill:var(--color6, #e53935)"/><path fill="#4caf50" d="M25.77 18.864c-1.091 1.234-2.65 2.006-4.382 2.006-2.339 0-4.363-1.409-5.344-3.461l1.852-1.33c.556 1.449 1.91 2.473 3.492 2.473.993 0 1.896-.403 2.568-1.062l1.814 1.374z" style="fill:var(--color7, #4caf50)"/><path fill="#43a047" d="m17.896 16.079-.546.392c.634 1.239 1.882 2.081 3.317 2.081.121 0 .241-.006.36-.018-1.425-.142-2.617-1.117-3.13-2.455zM21.388 20.87c1.731 0 3.291-.772 4.382-2.006l-.444-.337c-1.024 1.336-2.561 2.222-4.297 2.331.119.007.239.011.36.011z" style="fill:var(--color8, #43a047)"/><path fill="#ffc107" d="M17.626 14.609a4.1 4.1 0 0 0 .27 1.47l-1.852 1.33a6.48 6.48 0 0 1-.63-2.8c0-1.097.269-2.129.742-3.025l1.814 1.374a4.093 4.093 0 0 0-.345 1.651z" style="fill:var(--color9, #ffc107)"/><path fill="#ffb300" d="m17.35 16.471.546-.392a4.1 4.1 0 0 1-.27-1.47c0-.59.124-1.149.345-1.651l-.524-.397a4.084 4.084 0 0 0-.542 2.021 4.078 4.078 0 0 0 .445 1.889z" style="fill:var(--color10, #ffb300)"/></symbol><symbol id="icon-logo_k" viewBox="0 0 93 32"><path fill="#fb7c2f" d="M14.452 5.161H32a8.258 8.258 0 0 1 8.258 8.258v10.323A8.258 8.258 0 0 1 32 32H14.452a8.258 8.258 0 0 1-8.258-8.258V13.419a8.258 8.258 0 0 1 8.258-8.258z" style="fill:var(--color11, #fb7c2f)"/><path fill="#fb7c2f" d="M8.258 0h17.548a8.258 8.258 0 0 1 8.258 8.258v10.323a8.258 8.258 0 0 1-8.258 8.258H8.258A8.258 8.258 0 0 1 0 18.581V8.258A8.258 8.258 0 0 1 8.258 0z" opacity=".2" style="fill:var(--color11, #fb7c2f)"/><path d="m23.88 21.234 1.327-1.456 2.857 4.995h3.834l-4.534-7.483 4.534-5.935h-3.999l-2.894 4.211-1.124 1.705v-5.916h-3.235v13.418h3.235v-3.539zm15.049 2.644c.086.393.184.691.295.894h3.106v-.157c-.27-.485-.412-1.186-.424-2.101V18.1c-.018-1.081-.396-1.932-1.134-2.553s-1.742-.931-3.013-.931c-1.272 0-2.319.301-3.142.903-.817.602-1.226 1.385-1.226 2.35h3.106c0-.725.369-1.087 1.106-1.087.792 0 1.189.458 1.189 1.373v.525h-.958c-1.524 0-2.685.276-3.483.829s-1.198 1.37-1.198 2.451c0 .86.329 1.576.986 2.147.657.565 1.456.848 2.396.848 1.026 0 1.825-.359 2.396-1.078zm-.692-1.382c-.252.166-.571.249-.958.249-.295 0-.538-.086-.728-.258a.906.906 0 0 1-.286-.691c0-.971.541-1.456 1.622-1.456h.903v1.594c-.111.209-.295.396-.553.562zm14.653-2.635c0 1.548-.35 2.786-1.051 3.714-.694.922-1.634 1.382-2.82 1.382-.915 0-1.668-.335-2.258-1.005v4.654h-3.106V14.801h2.903l.092.922c.596-.737 1.379-1.106 2.35-1.106 1.229 0 2.184.455 2.866 1.364.682.903 1.023 2.147 1.023 3.732v.148zm-3.106-.194c0-1.769-.516-2.654-1.548-2.654-.737 0-1.229.264-1.474.793v3.926c.27.553.768.829 1.493.829.989 0 1.499-.854 1.53-2.562v-.332zm8.792 5.29c1.118 0 2.006-.421 2.663-1.263l.092 1.078h2.912v-9.971h-3.124v6.994c-.301.51-.808.765-1.521.765-.829 0-1.244-.427-1.244-1.281v-6.478h-3.106v6.46c0 1.192.28 2.107.839 2.746.565.633 1.395.949 2.488.949zm12.597-2.986c0-.264-.138-.476-.415-.636s-.802-.326-1.576-.498-1.413-.396-1.917-.673c-.504-.283-.888-.624-1.152-1.023s-.396-.857-.396-1.373c0-.915.378-1.668 1.134-2.258.635-.5 1.434-.791 2.397-.871v-2.265h1.48v2.294c.901.109 1.655.39 2.26.841.799.596 1.198 1.379 1.198 2.35h-3.115c0-.799-.421-1.198-1.262-1.198-.326 0-.599.092-.82.276a.829.829 0 0 0-.332.673c0 .276.135.501.405.673s.7.313 1.29.424a11.32 11.32 0 0 1 1.567.396c1.499.516 2.249 1.441 2.249 2.774 0 .909-.405 1.65-1.216 2.221-.605.43-1.346.698-2.223.804v2.274h-1.48v-2.245a5.134 5.134 0 0 1-1.715-.437c-.67-.307-1.192-.725-1.567-1.253s-.562-1.084-.562-1.668h2.903c.012.461.166.799.461 1.014.295.209.673.313 1.133.313.424 0 .74-.086.949-.258a.821.821 0 0 0 .323-.673zm9.105-7.17v-2.479h-3.106v2.479H75.9v2.156h1.272v4.949c0 1.026.255 1.791.765 2.295s1.299.756 2.368.756c.608 0 1.192-.089 1.751-.267v-2.221a4.546 4.546 0 0 1-.774.055c-.399 0-.667-.074-.802-.221s-.203-.409-.203-.783v-4.562h1.64v-2.156h-1.64zm9.52 9.971c-.111-.203-.209-.501-.295-.894-.571.719-1.37 1.078-2.396 1.078-.94 0-1.739-.283-2.396-.848-.657-.571-.986-1.287-.986-2.147 0-1.081.399-1.898 1.198-2.451s1.96-.829 3.483-.829h.958v-.525c0-.915-.396-1.373-1.189-1.373-.737 0-1.106.363-1.106 1.087h-3.106c0-.965.408-1.748 1.226-2.35.823-.602 1.871-.903 3.142-.903s2.276.31 3.013.931c.737.62 1.115 1.471 1.133 2.553v4.414c.012.915.154 1.616.424 2.101v.157h-3.106zm-1.945-2.027c.387 0 .706-.083.958-.249.258-.166.442-.353.553-.562V20.34h-.903c-1.081 0-1.622.485-1.622 1.456a.9.9 0 0 0 .286.691c.19.172.433.258.728.258z" style="fill:var(--color2, #000)"/></symbol><symbol id="icon-union" viewBox="0 0 101 32"><path d="m8.035 18.135-1.912 2.098v5.1H1.461V5.996h4.662v8.527l1.62-2.457 4.17-6.07h5.764l-6.534 8.553 6.534 10.784h-5.525l-4.117-7.198zm18.714 7.198c-.159-.292-.301-.722-.425-1.288-.823 1.036-1.974 1.554-3.453 1.554-1.355 0-2.506-.407-3.453-1.222-.947-.823-1.421-1.855-1.421-3.095 0-1.558.576-2.736 1.727-3.533s2.824-1.195 5.02-1.195h1.381v-.757c0-1.319-.571-1.979-1.713-1.979-1.063 0-1.594.522-1.594 1.567h-4.476c0-1.39.589-2.519 1.766-3.387 1.186-.868 2.696-1.302 4.529-1.302s3.28.447 4.343 1.341c1.062.894 1.607 2.121 1.634 3.679v6.362c.018 1.319.221 2.329.611 3.028v.226h-4.476zm-2.803-2.922c.558 0 1.018-.12 1.381-.359.372-.239.638-.509.797-.81v-2.298h-1.302c-1.558 0-2.338.7-2.338 2.098 0 .407.137.739.412.996.274.248.624.372 1.049.372zm22.499-4.157c0 2.231-.505 4.015-1.514 5.352-1.001 1.328-2.355 1.992-4.064 1.992-1.319 0-2.404-.483-3.254-1.448v6.707h-4.476V10.962h4.183l.133 1.328c.859-1.063 1.988-1.594 3.387-1.594 1.771 0 3.148.655 4.131 1.966.983 1.302 1.474 3.095 1.474 5.379v.212zm-4.476-.278c0-2.55-.744-3.825-2.231-3.825-1.063 0-1.771.381-2.125 1.142v5.658c.39.797 1.107 1.195 2.151 1.195 1.426 0 2.161-1.231 2.205-3.692v-.478zm15.021 5.803c-.947 1.213-2.227 1.82-3.838 1.82-1.576 0-2.771-.456-3.586-1.368-.806-.921-1.209-2.24-1.209-3.958v-9.31h4.476V20.3c0 1.231.598 1.846 1.793 1.846 1.027 0 1.758-.367 2.191-1.102v-10.08h4.502v14.37h-4.197l-.133-1.554zm14.317-2.483c0-.381-.199-.686-.598-.916s-1.155-.469-2.271-.717c-1.116-.248-2.037-.571-2.763-.97-.726-.407-1.279-.899-1.66-1.474s-.571-1.235-.571-1.979c0-1.319.545-2.404 1.634-3.254 1.089-.859 2.515-1.288 4.277-1.288 1.895 0 3.418.429 4.569 1.288s1.727 1.988 1.727 3.387h-4.489c0-1.151-.607-1.727-1.82-1.727-.469 0-.863.133-1.182.398-.319.257-.478.58-.478.97 0 .398.195.722.584.97s1.009.452 1.859.611c.859.159 1.611.35 2.258.571 2.16.744 3.241 2.076 3.241 3.998 0 1.31-.585 2.377-1.753 3.201-1.16.823-2.665 1.235-4.516 1.235-1.231 0-2.329-.221-3.294-.664s-1.718-1.045-2.258-1.806c-.54-.761-.81-1.563-.81-2.404h4.183c.018.664.239 1.151.664 1.461.425.301.97.452 1.634.452.611 0 1.067-.124 1.368-.372.31-.248.465-.571.465-.97zM82.941 7.39v3.573h2.364v3.108h-2.364v6.574c0 .54.098.916.292 1.129s.58.319 1.155.319c.443 0 .815-.027 1.116-.08v3.201a8.254 8.254 0 0 1-2.523.385c-1.541 0-2.678-.363-3.413-1.089s-1.102-1.828-1.102-3.307v-7.132h-1.833v-3.108h1.833V7.39h4.476zm12.232 17.943c-.159-.292-.301-.722-.425-1.288-.823 1.036-1.975 1.554-3.453 1.554-1.355 0-2.506-.407-3.453-1.222-.947-.823-1.421-1.855-1.421-3.095 0-1.558.575-2.736 1.727-3.533s2.825-1.195 5.02-1.195h1.381v-.757c0-1.319-.571-1.979-1.713-1.979-1.063 0-1.594.522-1.594 1.567h-4.476c0-1.39.589-2.519 1.766-3.387 1.186-.868 2.696-1.302 4.529-1.302s3.281.447 4.343 1.341c1.062.894 1.607 2.121 1.634 3.679v6.362c.018 1.319.221 2.329.611 3.028v.226h-4.476zm-2.802-2.922c.558 0 1.018-.12 1.381-.359.372-.239.638-.509.797-.81v-2.298h-1.302c-1.558 0-2.338.7-2.338 2.098 0 .407.137.739.412.996.274.248.624.372 1.049.372z"/><path d="M68.533 7.467h2.133v3.467h-2.133V7.467zM68.533 25.333h2.133V28.8h-2.133v-3.467z"/></symbol></defs></svg>