<svg width="49" height="56" viewBox="0 0 49 56" fill="none" xmlns="http://www.w3.org/2000/svg">
<rect x="0.928589" y="9.72266" width="52.6786" height="46" rx="20" fill="#F5F6FB"/>
<path d="M11.7984 4.72461C11.3997 4.72461 11.0763 5.09659 11.0763 5.55553V5.90706C11.0763 6.36589 11.3996 6.73798 11.7984 6.73798C12.1972 6.73798 12.5205 6.366 12.5205 5.90706V5.55553C12.5204 5.09659 12.1972 4.72461 11.7984 4.72461Z" fill="#071F41"/>
<path d="M9.69878 7.4917H9.39338C8.99463 7.4917 8.67126 7.86368 8.67126 8.32262C8.67126 8.78145 8.99454 9.15354 9.39338 9.15354H9.69878C10.0975 9.15354 10.4209 8.78156 10.4209 8.32262C10.4209 7.86379 10.0976 7.4917 9.69878 7.4917Z" fill="#071F41"/>
<path d="M10.8242 6.02695L10.6082 5.77845C10.3263 5.45404 9.86897 5.45404 9.58704 5.77856C9.30512 6.10307 9.30512 6.62917 9.58714 6.95357L9.80319 7.20207C9.94415 7.36428 10.1289 7.44543 10.3137 7.44543C10.4985 7.44543 10.6834 7.36428 10.8243 7.20196C11.1063 6.87745 11.1063 6.35135 10.8242 6.02695Z" fill="#071F41"/>
<path d="M10.8243 9.44358C10.5423 9.11907 10.0851 9.11907 9.80306 9.44358L9.587 9.69219C9.30498 10.0166 9.30498 10.5428 9.587 10.8672C9.72797 11.0294 9.91275 11.1106 10.0976 11.1106C10.2824 11.1106 10.4672 11.0294 10.6082 10.8672L10.8243 10.6186C11.1063 10.2942 11.1063 9.76799 10.8243 9.44358Z" fill="#071F41"/>
<path d="M43.3112 6.85344H18.9168C18.6415 5.07598 17.8702 3.44805 16.7039 2.20795C15.3649 0.784109 13.6227 0 11.7984 0C7.81013 0 4.56543 3.73363 4.56543 8.32289C4.56543 12.9122 7.81013 16.6458 11.7984 16.6458C12.5307 16.6458 13.2502 16.5178 13.9446 16.269C15.0327 17.4502 16.3808 18.3339 17.9033 18.7895C18.8869 19.0839 19.6342 20.0179 19.8069 21.1692L20.7248 27.2869C21.0491 29.4483 22.0943 31.322 23.6679 32.5629C24.8611 33.5037 25.5735 35.0378 25.5735 36.6667V49.1358C25.0229 49.5373 24.6703 50.243 24.6703 51.0216C24.6703 51.0453 24.6706 51.0689 24.6712 51.0926C22.867 51.5169 21.381 51.9077 20.2529 52.2545C19.4844 52.4907 18.9047 52.6991 18.4805 52.8915C18.0853 53.0707 17.3496 53.4044 17.3496 54.1789C17.3496 55.2196 18.5254 55.3972 19.4703 55.5401C20.282 55.6628 21.4066 55.765 22.8128 55.844C25.1883 55.9776 27.5948 55.9998 27.6189 56C27.6207 56 27.6225 56 27.6243 56C27.6261 56 27.628 56 27.6297 56C27.6538 55.9998 30.0603 55.9775 32.4358 55.844C33.842 55.765 34.9666 55.6628 35.7783 55.5401C36.7232 55.3972 37.899 55.2196 37.899 54.1789C37.899 53.3558 37.2394 52.9312 34.83 52.2039C33.37 51.7632 31.5511 51.3183 30.2448 51.0147C30.2433 50.4148 30.036 49.8541 29.6751 49.4417V36.6665C29.6751 35.0377 30.3876 33.5036 31.5807 32.5628C33.1543 31.3219 34.1995 29.4482 34.5238 27.2868L35.4417 21.1691C35.6144 20.0178 36.3616 19.0837 37.3453 18.7894C40.6437 17.8024 43.1244 14.8092 43.909 11.1234C43.912 11.1092 43.9153 11.0952 43.9177 11.0808C44.0834 10.2879 44.1724 9.464 44.1724 8.62061V7.84459C44.1725 7.29805 43.7861 6.85344 43.3112 6.85344ZM11.7984 14.9839C8.60647 14.9839 6.00965 11.9958 6.00965 8.32289C6.00965 4.64997 8.60647 1.66184 11.7984 1.66184C13.2583 1.66184 14.6524 2.28922 15.7238 3.42847C16.5931 4.3528 17.188 5.54575 17.4437 6.85344H16.7041C16.1325 4.31988 14.1263 2.48828 11.7984 2.48828C9.00246 2.48828 6.72786 5.10573 6.72786 8.32289C6.72786 11.54 9.00256 14.1575 11.7984 14.1575C12.0066 14.1575 12.2152 14.1413 12.423 14.1115C12.5616 14.3717 12.71 14.6244 12.8675 14.8695C12.5165 14.9454 12.1593 14.9839 11.7984 14.9839ZM14.0096 5.7785C13.7277 5.45409 13.2704 5.45409 12.9885 5.7785L12.7725 6.027C12.578 6.25067 12.5178 6.57027 12.5914 6.85344H11.9377C11.4627 6.85344 11.0763 7.29805 11.0763 7.84459V8.62061C11.0763 9.46378 11.1652 10.2875 11.3309 11.0801C11.3334 11.0955 11.3368 11.1105 11.3401 11.1256C11.4398 11.5935 11.5659 12.0506 11.7186 12.4935C9.75584 12.4443 8.17199 10.593 8.17199 8.32289C8.17199 6.02197 9.79881 4.15002 11.7984 4.15002C13.3326 4.15002 14.6717 5.2617 15.1923 6.85344H14.0828C14.2881 6.52848 14.2643 6.07152 14.0096 5.7785ZM29.8525 52.6189C32.3911 53.2067 33.9848 53.6522 34.9823 53.974C33.158 54.1802 30.2317 54.3152 27.6244 54.3382C25.0177 54.3152 22.0916 54.1802 20.2673 53.9742C21.2213 53.6663 22.7204 53.2454 25.0697 52.6949C25.7196 52.5428 26.1694 51.8425 26.1161 51.0666C26.1151 51.0518 26.1145 51.0367 26.1145 51.0215C26.1145 50.7641 26.2657 50.5378 26.4823 50.471C26.7981 50.3737 27.0177 50.0445 27.0177 49.6684V36.6665C27.0177 35.5725 26.7783 34.5115 26.3391 33.568C26.7427 33.5981 27.1834 33.6135 27.6244 33.6135C28.0654 33.6135 28.5061 33.5981 28.9097 33.568C28.4705 34.5116 28.2311 35.5726 28.2311 36.6665V49.8361C28.2311 50.1212 28.3582 50.3864 28.5677 50.5386C28.7136 50.6446 28.8008 50.825 28.8008 51.0214C28.8008 51.034 28.8004 51.0466 28.7998 51.0581C28.7582 51.7994 29.2107 52.4704 29.8525 52.6189ZM42.7285 8.62061H42.7284C42.7284 9.12012 42.6919 9.61166 42.6217 10.0917H20.8832C20.4845 10.0917 20.1611 10.4637 20.1611 10.9226C20.1611 11.3815 20.4844 11.7535 20.8832 11.7535H42.2298C41.3664 14.3772 39.4453 16.4442 36.9821 17.1812C35.4509 17.6393 34.2877 19.0937 34.0188 20.8865L33.101 27.0041C32.8436 28.7198 32.0139 30.2071 30.7646 31.1921C30.5709 31.3449 29.9957 31.7017 29.8907 31.7555C29.3193 32.0147 25.9344 32.0148 25.3591 31.756C25.2545 31.7028 24.6785 31.3453 24.4843 31.1922C23.235 30.2071 22.4053 28.7198 22.1479 27.0042L21.2301 20.8866C20.9612 19.0938 19.7979 17.6395 18.2668 17.1813C16.8731 16.7642 15.6532 15.921 14.6996 14.7925C14.677 14.7604 14.6522 14.7308 14.626 14.7033C13.9296 13.856 13.3812 12.8541 13.0191 11.7537H17.5236C17.9223 11.7537 18.2457 11.3817 18.2457 10.9227C18.2457 10.4639 17.9224 10.0918 17.5236 10.0918H12.6272C12.557 9.61176 12.5205 9.12012 12.5205 8.62072V8.51528H42.7285V8.62061Z" fill="#071F41"/>
</svg>
