<svg width="57" height="56" viewBox="0 0 57 56" fill="none" xmlns="http://www.w3.org/2000/svg">
<rect x="0.928589" y="9.72266" width="52.6786" height="46" rx="20" fill="#F5F6FB"/>
<g clip-path="url(#clip0_11_1017)">
<path d="M53.2263 27.517L51.0002 25.2679V3.8683L52.8706 1.97862C53.2373 1.60817 53.2373 1.00748 52.8706 0.637138C52.5038 0.266684 51.9094 0.266684 51.5427 0.637138L49.6723 2.52681H28.4909L26.2648 0.27784C25.8982 -0.0926134 25.3036 -0.0926134 24.937 0.27784C24.5704 0.648294 24.5704 1.24898 24.937 1.61933L27.068 3.77227L20.4591 32.0664C19.9141 32.7544 19.7317 33.6715 19.987 34.528C20.2711 35.481 21.0472 36.1959 22.0125 36.3938L26.227 37.2581C27.026 37.4221 27.7056 37.9323 28.0913 38.6581C28.4769 39.3839 28.5224 40.2379 28.2161 41.0013C27.7178 42.243 26.414 42.943 25.1171 42.665L9.32779 39.2854C6.95042 38.7764 4.55346 40.1399 3.75071 42.457C3.2852 43.8006 3.42106 45.2793 4.12334 46.5133C4.82573 47.7476 6.0221 48.6103 7.40533 48.8799L7.47072 48.8927C8.71494 49.1352 9.77155 49.9217 10.3697 51.0504C10.9677 52.1792 11.0297 53.5035 10.5395 54.6843C10.3389 55.1675 10.5641 55.7234 11.0423 55.9261C11.1609 55.9763 11.2839 56.0001 11.405 56.0001C11.772 56.0001 12.1204 55.7814 12.2711 55.418C12.9809 53.708 12.8913 51.7897 12.025 50.155C11.1588 48.5203 9.62832 47.3811 7.82656 47.0299L7.76117 47.0171C6.91383 46.852 6.18124 46.3237 5.75113 45.5678C5.32101 44.8119 5.23787 43.9065 5.52302 43.0836C6.01452 41.6646 7.48306 40.8301 8.93828 41.1414L24.7272 44.521C26.9165 44.9896 29.1151 43.8092 29.9558 41.7141C30.4728 40.4261 30.396 38.9852 29.7453 37.7607C29.0947 36.5361 27.9484 35.6754 26.6002 35.3989L22.3857 34.5346C21.9665 34.4486 21.8258 34.1187 21.7847 33.9809C21.7514 33.8694 21.7041 33.6165 21.8476 33.3622L49.767 26.7058L51.898 28.8588C52.0814 29.0439 52.3218 29.1367 52.5621 29.1367C52.8023 29.1367 53.0427 29.0442 53.2261 28.8588C53.5929 28.4881 53.5929 27.8874 53.2263 27.517ZM47.7943 4.42403L39.0816 13.2264L30.3688 4.42403H47.7943ZM28.629 5.34935L37.7536 14.568L22.9924 29.4816L28.629 5.34935ZM24.3203 30.8233L39.0816 15.9097L48.2063 25.1284L24.3203 30.8233ZM49.1221 23.3705L40.4094 14.568L49.1221 5.76552V23.3705Z" fill="#071F41"/>
</g>
<defs>
<clipPath id="clip0_11_1017">
<rect width="55.4286" height="56" fill="white" transform="translate(0.775513)"/>
</clipPath>
</defs>
</svg>
