<svg width="18" height="18" viewBox="0 0 18 18" fill="none" xmlns="http://www.w3.org/2000/svg">
<g clip-path="url(#clip0_1_181)">
<path d="M17.1942 7.33402C17.2706 7.33402 17.3325 7.39888 17.3325 7.47889V9C17.3325 9.56932 17.282 10.126 17.1852 10.666C16.4367 14.8604 12.9111 18.0303 8.68524 17.9998C3.94348 17.9655 0.148642 13.9498 0.15914 8.97972C0.169572 4.01857 4.01003 0 8.74578 0C11.066 0 13.1711 0.964758 14.7167 2.53188C14.7725 2.58845 14.7739 2.68168 14.719 2.7392L12.6659 4.89115C12.613 4.94656 12.5276 4.948 12.4735 4.89396C11.5034 3.92614 10.1909 3.33197 8.74578 3.33197C5.76154 3.33197 3.35845 5.83284 3.33819 8.96066C3.31783 12.109 5.74678 14.668 8.74578 14.668C11.1791 14.668 13.2371 12.9832 13.9158 10.666H8.884C8.80766 10.666 8.74578 10.6011 8.74578 10.5211V7.47886C8.74578 7.39884 8.80766 7.33398 8.884 7.33398H17.1942V7.33402Z" fill="#2196F3"/>
<path d="M17.1939 7.33398H16.1573C16.2336 7.33398 16.2955 7.39885 16.2955 7.47886V8.99997C16.2955 9.56929 16.245 10.126 16.1483 10.666C15.4341 14.6675 12.1925 17.7365 8.22656 17.9837C8.37831 17.9931 8.53105 17.9986 8.68488 17.9997C12.9108 18.0303 16.4363 14.8604 17.1849 10.666C17.2816 10.126 17.3321 9.56929 17.3321 8.99997V7.47883C17.3321 7.39885 17.2702 7.33398 17.1939 7.33398Z" fill="#1E88E5"/>
<path d="M3.83357 6.62632L1.22577 4.65138C2.68879 1.87787 5.50804 0 8.74541 0C11.0656 0 13.1707 0.964758 14.7163 2.53188C14.7721 2.58845 14.7736 2.68168 14.7186 2.7392L12.6655 4.89115C12.6128 4.94645 12.5274 4.94817 12.4733 4.89424C11.5033 3.92625 10.1907 3.332 8.74541 3.332C6.56748 3.332 4.69016 4.68144 3.83357 6.62632Z" fill="#F44336"/>
<path d="M3.08075 6.05622L3.83359 6.62635C4.61545 4.85117 6.24786 3.57268 8.18288 3.36297C8.19743 3.36132 8.21142 3.35931 8.22625 3.35784C8.05595 3.34089 7.88338 3.33203 7.70883 3.33203C5.74138 3.33203 4.02673 4.41917 3.08075 6.05622Z" fill="#E53935"/>
<path d="M13.6797 2.53188C13.7355 2.58845 13.7369 2.68168 13.682 2.73923L12.0156 4.4859C12.1752 4.61317 12.328 4.74929 12.4731 4.894C12.5272 4.94803 12.6126 4.94659 12.6655 4.89118L14.7186 2.73923C14.7735 2.68168 14.772 2.58848 14.7163 2.53188C13.1707 0.964758 11.0656 0 8.74538 0C8.57126 0 8.39852 0.00608203 8.22699 0.0168047C10.3415 0.148816 12.25 1.08232 13.6797 2.53188Z" fill="#E53935"/>
<path d="M15.0443 15.1164C13.4762 16.89 11.2344 18 8.74544 18C5.38369 18 2.47321 15.9751 1.06372 13.0252L3.72609 11.1129C4.52502 13.1965 6.47144 14.668 8.74544 14.668C10.1725 14.668 11.4704 14.0885 12.4365 13.1418L15.0443 15.1164Z" fill="#4CAF50"/>
<path d="M3.72618 11.1129L2.9411 11.6768C3.85293 13.4572 5.64604 14.668 7.70888 14.668C7.88333 14.668 8.05577 14.659 8.226 14.6421C6.17831 14.4375 4.46349 13.0359 3.72618 11.1129Z" fill="#43A047"/>
<path d="M8.74547 18.0001C11.2344 18.0001 13.4763 16.89 15.0443 15.1165L14.4056 14.6328C12.9332 16.5534 10.7245 17.8275 8.22845 17.9837C8.39952 17.9944 8.57185 18.0001 8.74547 18.0001Z" fill="#43A047"/>
<path d="M3.33773 8.99998C3.33773 9.74677 3.47559 10.4599 3.72611 11.1129L1.06371 13.0252C0.48461 11.8141 0.158752 10.4469 0.158752 8.99998C0.158752 7.42273 0.545756 5.94034 1.22578 4.65137L3.83358 6.6263C3.51534 7.3481 3.33773 8.15251 3.33773 8.99998Z" fill="#FFC107"/>
<path d="M2.94102 11.6768L3.7261 11.1129C3.47558 10.4599 3.33772 9.74676 3.33772 8.99997C3.33772 8.15249 3.51532 7.34808 3.83357 6.62628L3.08072 6.05615C2.59185 6.90219 2.30812 7.89497 2.30121 8.96066C2.29484 9.94342 2.52718 10.8688 2.94102 11.6768Z" fill="#FFB300"/>
</g>
<defs>
<clipPath id="clip0_1_181">
<rect width="17.1733" height="18" fill="white" transform="translate(0.158752)"/>
</clipPath>
</defs>
</svg>
