<svg width="51" height="56" viewBox="0 0 51 56" fill="none" xmlns="http://www.w3.org/2000/svg">
<rect x="0.928589" y="9.72266" width="52.6786" height="46" rx="20" fill="#F5F6FB"/>
<g clip-path="url(#clip0_11_1041)">
<path d="M50.209 31.2001L49.3192 16.6657C49.2615 15.7243 48.8792 14.8651 48.243 14.2466C47.6066 13.6281 46.7933 13.3252 45.9531 13.3938C44.3015 13.5286 43.0205 15.087 43.0369 16.9416L43.1419 28.7903L38.5593 35.3638C37.8277 36.4131 36.6139 36.8344 35.5129 36.5184L40.499 29.2664C41.3742 27.9935 41.2287 26.1495 40.168 25.0683C39.6017 24.4909 38.8694 24.2057 38.1051 24.2656C37.3412 24.3254 36.6511 24.7216 36.1618 25.3815L28.6294 35.5413C27.3871 37.217 26.7135 39.3391 26.7323 41.517L26.8493 55.0092C26.8539 55.5469 27.2441 55.9802 27.7243 55.981L40.2665 56.0001C40.2668 56.0001 40.2673 56.0001 40.2677 56.0001C40.513 56.0001 40.7471 55.8849 40.913 55.6825C41.0793 55.4797 41.1619 55.2082 41.1405 54.9338L40.6286 48.3295L48.9547 35.9362C49.8674 34.578 50.3127 32.8959 50.209 31.2001ZM47.5545 34.7564L39.0266 47.4501C38.8967 47.6435 38.8351 47.8839 38.8538 48.125L39.312 54.036L28.5933 54.0197L28.4848 41.498C28.4698 39.784 29.0001 38.114 29.9777 36.7953L37.5101 26.6353C37.6906 26.3918 37.9453 26.2456 38.2271 26.2237C38.509 26.2012 38.7795 26.3067 38.9885 26.5199C39.38 26.9189 39.4336 27.5994 39.1106 28.069L33.4524 36.2986C33.304 36.5143 33.2424 36.7894 33.2823 37.058C33.3221 37.3266 33.4599 37.5647 33.6624 37.7151C35.6873 39.2193 38.4452 38.7171 39.9405 36.5719L44.7118 29.7278C44.834 29.5527 44.8993 29.3363 44.8974 29.1141L44.7893 16.9223C44.782 16.1013 45.3492 15.4113 46.0804 15.3515C46.4541 15.3214 46.8126 15.4553 47.0943 15.729C47.3761 16.0029 47.5452 16.3832 47.5708 16.8001L48.4606 31.3345C48.5355 32.5597 48.2139 33.7749 47.5545 34.7564Z" fill="#071F41"/>
<path d="M14.6239 25.3813C14.1346 24.7214 13.4445 24.325 12.6806 24.2654C11.9171 24.2057 11.1841 24.4907 10.6179 25.068C9.55701 26.1493 9.41156 27.9934 10.2867 29.2663L15.2729 36.5183C14.1726 36.8339 12.9581 36.4131 12.2265 35.3637L7.6438 28.7902L7.74883 16.9415C7.76519 15.0869 6.48438 13.5285 4.83275 13.3937C3.99368 13.3256 3.17949 13.6278 2.54288 14.2465C1.90663 14.865 1.52436 15.7242 1.46664 16.6656L0.576749 31.1999C0.472887 32.8957 0.91836 34.5778 1.8308 35.9361L10.157 48.3294L9.6451 54.9337C9.62372 55.2079 9.70632 55.4796 9.87257 55.6824C10.0386 55.8848 10.2727 56 10.5179 56C10.5183 56 10.5188 56 10.5191 56L23.0613 55.9809C23.5415 55.9801 23.9317 55.5468 23.9363 55.009L24.0534 41.5169C24.0722 39.3391 23.3986 37.217 22.1563 35.5413L14.6239 25.3813ZM22.1924 54.0194L11.4738 54.0358L11.932 48.1248C11.9507 47.8836 11.8893 47.6432 11.7593 47.4498L3.23125 34.7561C2.57186 33.7747 2.25022 32.5594 2.32511 31.3343L3.21501 16.7999C3.24059 16.383 3.40976 16.0026 3.69156 15.7287C3.94706 15.4804 4.26706 15.3471 4.6019 15.3471C4.63624 15.3471 4.67071 15.3485 4.70541 15.3512C5.43665 15.4109 6.00362 16.1009 5.99638 16.9221L5.88831 29.1139C5.88632 29.3361 5.95175 29.5525 6.07395 29.7276L10.8452 36.5717C12.3407 38.7168 15.0984 39.2187 17.1234 37.715C17.326 37.5645 17.4637 37.3265 17.5036 37.0579C17.5434 36.7893 17.4817 36.5141 17.3335 36.2983L11.6751 28.0689C11.3522 27.5992 11.4058 26.9187 11.7975 26.5197C12.0065 26.3065 12.2766 26.2017 12.5586 26.2234C12.8405 26.2454 13.0952 26.3917 13.2757 26.6352L20.8081 36.7951C21.7857 38.114 22.316 39.784 22.3011 41.4979L22.1924 54.0194Z" fill="#071F41"/>
<path d="M42.5578 11.0429C42.5578 8.09331 41.5322 5.32022 39.6699 3.23447C37.8076 1.1486 35.3317 0 32.698 0C30.0645 0 27.5885 1.1486 25.7261 3.23434L25.3929 3.60766L25.0596 3.23434C23.1974 1.1486 20.7214 0 18.0877 0C15.4542 0 12.9782 1.1486 11.1158 3.23434C7.27161 7.53995 7.27161 14.5456 11.1159 18.8514L24.7732 34.1476C24.9444 34.3391 25.1687 34.4351 25.3929 34.4351C25.6171 34.4351 25.8414 34.3393 26.0126 34.1476L39.6699 18.8513C41.5322 16.7656 42.5578 13.9925 42.5578 11.0429ZM25.393 32.0659L12.3551 17.4635C9.19405 13.9231 9.19405 8.16253 12.3551 4.62213C13.8863 2.90722 15.9223 1.96275 18.0877 1.96275C20.2533 1.96275 22.2892 2.90722 23.8205 4.62227L24.7733 5.68948C24.9376 5.87358 25.1604 5.97695 25.3929 5.97695C25.6254 5.97695 25.8482 5.87345 26.0126 5.68948L26.9653 4.62227C28.4966 2.90722 30.5326 1.96275 32.698 1.96275C34.8636 1.96275 36.8995 2.90722 38.4307 4.62227C39.962 6.33731 40.8053 8.6175 40.8053 11.0429C40.8053 13.4684 39.962 15.7485 38.4307 17.4636L25.393 32.0659Z" fill="#071F41"/>
</g>
<defs>
<clipPath id="clip0_11_1041">
<rect width="50" height="56" fill="white" transform="translate(0.392883)"/>
</clipPath>
</defs>
</svg>
