<svg xmlns="http://www.w3.org/2000/svg" aria-hidden="true" style="position:absolute;width:0;height:0;overflow:hidden"><defs><symbol id="icon-book-1" viewBox="0 0 32 32"><path d="M31.38 6.431h-2.109v-.72a.62.62 0 0 0-.447-.62 17.485 17.485 0 0 0-4.472-.571c-2.481 0-5.862.558-8.361 3.101C13.51 5.053 10.105 4.52 7.63 4.52a17.44 17.44 0 0 0-4.472.571.62.62 0 0 0-.447.62v.713H.621a.62.62 0 0 0-.62.62v19.812a.62.62 0 0 0 .924.539c.062-.031 6.265-3.424 14.924-1.241h.149a.619.619 0 0 0 .149 0c8.684-2.202 14.887 1.185 14.924 1.241a.619.619 0 0 0 .93-.533V7.05a.62.62 0 0 0-.62-.62zM1.241 25.871V7.672h1.482v15.556a.62.62 0 0 0 .713.62c1.283-.196 2.579-.3 3.877-.31a16.092 16.092 0 0 1 5.297.8A22.805 22.805 0 0 0 1.24 25.87zm6.072-3.567a27.381 27.381 0 0 0-3.374.217V6.202a17.11 17.11 0 0 1 3.678-.409c2.32 0 5.52.533 7.741 3.039l.019 15.451c-1.29-.844-3.809-1.979-8.064-1.979zm9.304-13.472c2.221-2.481 5.421-3.039 7.741-3.039 1.237.004 2.47.141 3.678.409v16.319a27.293 27.293 0 0 0-3.356-.223c-4.23 0-6.755 1.135-8.064 1.979V8.832zm14.136 17.039a22.807 22.807 0 0 0-11.394-1.532 16.134 16.134 0 0 1 5.322-.8 27.12 27.12 0 0 1 3.902.304.62.62 0 0 0 .713-.62V7.673h1.482l-.025 18.199z"/></symbol><symbol id="icon-car-1" viewBox="0 0 29 32"><path d="m27.235 12.82-.614-.738-2.156-6.598c-.367-1.115-1.307-1.853-2.355-1.86H6.708c-1.048 0-1.988.745-2.355 1.86L2.227 12l-.885.93c-.771.745-1.217 1.839-1.217 2.988v9.614c.006 1.573 1.132 2.844 2.518 2.844h1.59c1.385 0 2.512-1.272 2.518-2.844v-1.395h14.938v1.395c.006 1.573 1.132 2.844 2.518 2.844h1.59c1.385 0 2.512-1.272 2.518-2.844v-9.867c-.006-1.073-.392-2.099-1.078-2.844zM5.484 5.949c.193-.581.681-.957 1.223-.957h15.408c.542 0 1.03.383 1.223.957l1.879 5.744h-1.404c-.331-2.564-2.434-4.335-4.692-3.952-1.801.301-3.217 1.908-3.482 3.952H3.604l1.879-5.744zm17.1 5.743h-5.728c.331-1.798 1.885-2.947 3.47-2.571 1.132.274 2.018 1.279 2.259 2.571zm-17.04 13.84c-.006.82-.59 1.477-1.313 1.477h-1.59c-.723 0-1.307-.656-1.313-1.477v-1.791c.361.267.837.397 1.313.397h2.903v1.395zm21.564 0c-.006.82-.59 1.477-1.313 1.477h-1.59c-.723 0-1.307-.663-1.313-1.477v-1.395h2.903c.476 0 .952-.13 1.313-.397v1.791zm-1.313-2.763H2.64c-.717.007-1.307-.643-1.313-1.463v-5.388c0-.752.295-1.47.801-1.956l.024-.027.819-.875h22.811l.578.704c.006.014.024.021.03.034.452.486.711 1.162.711 1.867v5.641h.006c-.006.814-.596 1.47-1.313 1.463z"/><path d="M8.074 15.795H3.556c-.331 0-.602.308-.602.684v3.556c0 .376.271.684.602.684h4.518c.331 0 .602-.308.602-.684v-3.556c0-.376-.271-.684-.602-.684zm-.603 3.555H4.158v-2.188h3.313v2.188zM24.88 15.795h-4.518c-.331 0-.602.308-.602.684v3.556c0 .376.271.684.602.684h4.518c.331 0 .602-.308.602-.684v-3.556c0-.376-.271-.684-.602-.684zm-.603 3.555h-3.313v-2.188h3.313v2.188zM17.127 18.667h-5.819c-.331 0-.602.308-.602.684s.271.684.602.684h5.819c.331 0 .602-.308.602-.684s-.271-.684-.602-.684zM17.127 16.547h-5.819c-.331 0-.602.308-.602.684s.271.684.602.684h5.819c.331 0 .602-.308.602-.684s-.271-.684-.602-.684z"/></symbol><symbol id="icon-clay-1" viewBox="0 0 32 32"><path d="M31.02 13.515h-1.907c-.354 0-.665.182-.847.456-1.458-.152-1.652-.386-1.81-.576a2.973 2.973 0 0 0-.756-.653l-4.383-2.662c-.893-2.073-2.386-3.369-3.493-4.096a1.528 1.528 0 0 1-.689-1.282c0-.307.09-.603.261-.857l1.09-1.622c.217-.323.292-.711.211-1.092s-.307-.705-.636-.912a1.425 1.425 0 0 0-.759-.218h-5.178c-.269 0-.531.076-.759.218-.33.207-.556.531-.636.912s-.006.769.211 1.092l1.09 1.622c.171.254.261.551.261.857 0 .52-.258.999-.689 1.282-1.642 1.077-5.311 4.25-3.924 10.452.774 3.459 1.371 5.897 1.731 7.07H1.68a1.36 1.36 0 0 0-1.325 1.077l-.264 1.268c-.084.401.017.812.275 1.13s.641.5 1.05.5H28.01a1.351 1.351 0 0 0 1.325-1.63l-.264-1.268a1.36 1.36 0 0 0-1.325-1.077h-7.729c.107-.351.237-.818.387-1.396h.509a14.91 14.91 0 0 0 4.399-.663l2.913-.367c.174.311.506.522.888.522h1.907c.56 0 1.016-.456 1.016-1.016v-6.054c0-.56-.456-1.017-1.016-1.017zM11.646 1.325a.488.488 0 0 1 .478-.388h5.178a.489.489 0 0 1 .405.762l-.539.803h-4.911l-.539-.803a.485.485 0 0 1-.072-.374zm.47 5.442a2.461 2.461 0 0 0 1.113-2.066c0-.447-.121-.88-.348-1.262h3.664a2.463 2.463 0 0 0-.347 1.262c0 .837.416 1.609 1.113 2.066.287.188.603.419.926.696h-7.043c.328-.282.645-.513.923-.696zm16.038 18.007.264 1.268c.035.168-.038.29-.084.347s-.151.154-.323.154H1.417c-.172 0-.276-.096-.323-.154s-.12-.179-.084-.347l.264-1.268a.417.417 0 0 1 .407-.331h26.066c.196 0 .367.139.407.331zm-9.121-1.268h-8.64c-.193-.575-.683-2.285-1.8-7.275-.471-2.104-.358-4.009.332-5.676h1.727a.469.469 0 0 0 0-.938H9.39c.265-.456.559-.86.864-1.216h8.919c.306.357.6.761.863 1.216h-7.508a.469.469 0 0 0 0 .938h6.212a1.493 1.493 0 0 0-.067.925c.096.39.338.72.681.927l.806.489h-5.21a1.51 1.51 0 0 0-1.419 2.069h-.481c-.412 0-.796.163-1.082.46s-.435.686-.42 1.098a1.5 1.5 0 0 0 1.036 1.371 1.505 1.505 0 0 0 1.358 2.147h.71a1.502 1.502 0 0 0 1.392 2.069h3.388a23.492 23.492 0 0 1-.402 1.395zm6.121-2.984a.449.449 0 0 0-.081.017c-1.348.42-2.748.633-4.16.633h-4.866a.567.567 0 0 1 0-1.132h3.072a.469.469 0 0 0 0-.938h-5.176a.567.567 0 0 1 0-1.132h5.176a.469.469 0 0 0 0-.938h-6.043c-.315 0-.58-.244-.59-.545a.568.568 0 0 1 .565-.587h6.068a.469.469 0 0 0 0-.938h-4.193a.562.562 0 0 1-.565-.587.585.585 0 0 1 .59-.545h6.461c.266 0 .494-.172.566-.429s-.033-.522-.261-.66l-1.876-1.139a.563.563 0 0 1-.191-.777.566.566 0 0 1 .777-.191l4.786 2.907c.198.12.372.271.52.45.383.463.875.741 2.363.904v5.255l-2.942.371zm5.945.064a.08.08 0 0 1-.079.079h-1.907a.08.08 0 0 1-.079-.079v-6.055a.08.08 0 0 1 .079-.079h1.907a.08.08 0 0 1 .079.079v6.055zM22.477 30.488l-2.441-1.964a.469.469 0 0 0-.588.731l2.248 1.808H7.731l2.253-1.812a.469.469 0 0 0-.588-.731L6.95 30.488c-.285.229-.39.6-.269.945s.436.568.802.568h14.461c.366 0 .68-.223.802-.568s.016-.716-.269-.945z"/></symbol><symbol id="icon-cocktail-1" viewBox="0 0 28 32"><path d="M6.742 2.7c-.228 0-.413.213-.413.475v.201c0 .262.185.475.413.475s.413-.213.413-.475v-.201c0-.262-.185-.475-.413-.475zM5.542 4.281h-.175c-.228 0-.413.213-.413.475s.185.475.413.475h.175c.228 0 .413-.213.413-.475s-.185-.475-.413-.475zM6.185 3.444l-.123-.142c-.161-.185-.422-.185-.583 0s-.161.486 0 .671l.123.142c.081.093.186.139.292.139s.211-.046.292-.139a.526.526 0 0 0 0-.671zM6.185 5.396a.377.377 0 0 0-.584 0l-.123.142a.526.526 0 0 0 0 .671c.081.093.186.139.292.139s.211-.046.292-.139l.123-.142a.526.526 0 0 0 0-.671z"/><path d="M24.749 3.916h-13.94c-.157-1.016-.598-1.946-1.264-2.655C8.78.447 7.784-.001 6.742-.001c-2.279 0-4.133 2.133-4.133 4.756s1.854 4.756 4.133 4.756c.418 0 .83-.073 1.226-.215a5.05 5.05 0 0 0 2.262 1.44c.562.168.989.702 1.088 1.36l.524 3.496c.185 1.235.783 2.306 1.682 3.015.682.538 1.089 1.414 1.089 2.345v7.125c-.315.229-.516.633-.516 1.078l.001.041c-1.031.242-1.88.466-2.525.664a8.88 8.88 0 0 0-1.013.364c-.226.102-.646.293-.646.736 0 .595.672.696 1.212.778.464.07 1.106.128 1.91.174 1.357.076 2.733.089 2.746.089h.006c.014 0 1.389-.013 2.746-.089a21.626 21.626 0 0 0 1.91-.174c.54-.082 1.212-.183 1.212-.778 0-.47-.377-.713-1.754-1.129a45.714 45.714 0 0 0-2.62-.68 1.367 1.367 0 0 0-.326-.899v-7.3c0-.931.407-1.807 1.089-2.345.899-.709 1.496-1.78 1.682-3.015l.524-3.496c.099-.658.526-1.192 1.088-1.36 1.885-.564 3.302-2.274 3.751-4.381l.005-.024a6.85 6.85 0 0 0 .146-1.406v-.443c0-.312-.221-.566-.492-.566zM6.742 8.562c-1.824 0-3.308-1.707-3.308-3.806S4.918.95 6.742.95c.834 0 1.631.359 2.243 1.01.497.528.837 1.21.983 1.957h-.423c-.327-1.448-1.473-2.494-2.803-2.494-1.598 0-2.897 1.496-2.897 3.334s1.3 3.334 2.897 3.334c.119 0 .238-.009.357-.026.079.149.164.293.254.433-.2.043-.405.065-.611.065zm1.264-5.26a.377.377 0 0 0-.584 0l-.123.142a.526.526 0 0 0-.104.472h-.374c-.271 0-.492.254-.492.566v.443c0 .482.051.952.145 1.405l.005.026c.057.267.129.529.216.782-1.122-.028-2.027-1.086-2.027-2.383 0-1.315.93-2.385 2.072-2.385.877 0 1.642.635 1.939 1.545h-.634a.528.528 0 0 0-.042-.614zm9.053 26.766c1.451.336 2.361.59 2.931.774-1.042.118-2.715.195-4.204.208-1.49-.013-3.162-.09-4.204-.208.545-.176 1.402-.416 2.744-.731.371-.087.628-.487.598-.93l-.001-.026c0-.147.086-.276.21-.315.18-.056.306-.244.306-.459v-7.43c0-.625-.137-1.231-.388-1.771a10.139 10.139 0 0 0 1.468 0 4.202 4.202 0 0 0-.388 1.771v7.526c0 .163.073.314.192.401a.34.34 0 0 1 .133.276v.021c-.024.424.235.807.602.892zm7.357-25.142c0 .285-.021.566-.061.841H11.933c-.228 0-.413.213-.413.475s.185.475.413.475h12.198c-.493 1.499-1.591 2.68-2.999 3.102-.875.262-1.54 1.093-1.693 2.117l-.524 3.496c-.147.98-.621 1.83-1.335 2.393a6.011 6.011 0 0 1-.499.322c-.327.148-2.261.148-2.59 0a5.759 5.759 0 0 1-.5-.322c-.714-.563-1.188-1.413-1.335-2.393l-.524-3.496c-.154-1.024-.818-1.855-1.693-2.117a4.282 4.282 0 0 1-2.08-1.416 5.225 5.225 0 0 1-.918-1.686h2.574c.228 0 .413-.213.413-.475s-.185-.475-.413-.475H7.217a5.821 5.821 0 0 1-.061-.841v-.06h17.262v.06z"/></symbol><symbol id="icon-couch-1" viewBox="0 0 32 32"><path d="M30.414 11.952h-.636V9.589a2.535 2.535 0 0 0-2.533-2.533h-9.181c-.851 0-1.605.422-2.064 1.068a2.53 2.53 0 0 0-2.064-1.068H8.168a.469.469 0 0 0 0 .938h5.768c.88 0 1.596.716 1.596 1.596v4.688l-.03-.028a3.067 3.067 0 0 0-2.069-.817H5.625a1.607 1.607 0 0 0-1.062-1.393 1.56 1.56 0 0 0-.52-.088H3.16V9.589c0-.88.716-1.596 1.596-1.596h1.538a.469.469 0 0 0 0-.938H4.756a2.535 2.535 0 0 0-2.533 2.533v2.363h-.636c-.875 0-1.586.712-1.586 1.586v4.894a3.307 3.307 0 0 0 3.303 3.303h.236l-.514 1.382c-.324.871.343 1.828 1.27 1.828h.754c.422 0 .826-.201 1.081-.538l2.021-2.671h15.699l2.021 2.672c.255.337.659.538 1.081.538h.754c.929 0 1.594-.957 1.27-1.828l-.514-1.382h.236a3.307 3.307 0 0 0 3.303-3.303v-4.894c0-.874-.711-1.586-1.586-1.586zM16.469 9.589c0-.88.716-1.596 1.596-1.596h9.181c.88 0 1.596.716 1.596 1.596v2.363h-.883c-.623 0-1.221.4-1.463.974a1.585 1.585 0 0 0-.12.507h-7.808c-.772 0-1.541.311-2.099.844V9.589zM5.628 14.37h7.805c1.157 0 2.099.942 2.099 2.099v.667H5.629V14.37zm-.246 9.471a.42.42 0 0 1-.333.166h-.754a.421.421 0 0 1-.392-.563l.635-1.708h2.437l-1.593 2.106zm22.323.165h-.754a.419.419 0 0 1-.333-.166l-1.593-2.106h2.437l.635 1.708c.1.27-.106.563-.392.563zm.992-3.209H3.302a2.368 2.368 0 0 1-2.365-2.365v-4.894c0-.358.291-.648.648-.648h2.456c.358 0 .648.291.648.648v4.067c0 .259.21.469.469.469h17.217a.469.469 0 0 0 0-.938h-5.907v-.667c0-1.157.942-2.099 2.099-2.099h7.805v2.766h-2.121a.469.469 0 0 0 0 .938h2.59c.259 0 .469-.21.469-.469v-4.067c0-.358.291-.648.648-.648h2.456c.358 0 .648.291.648.648v4.894a2.368 2.368 0 0 1-2.365 2.365z"/></symbol><symbol id="icon-Group-62" viewBox="0 0 33 32"><path fill="#ffdac0" d="M11.749 5.458h7.118c6.201 0 11.228 5.027 11.228 11.228v3.368c0 6.201-5.027 11.228-11.228 11.228h-7.118C5.548 31.282.521 26.255.521 20.054v-3.368c0-6.201 5.027-11.228 11.228-11.228z" style="fill:var(--color1, #ffdac0)"/><path fill="#ff751d" d="M13.734 11.897a1.382 1.382 0 0 0-1.039-.524c-.793-.011-1.449.697-1.463 1.584-.004.286.199.522.455.527h.008c.252 0 .458-.226.462-.509.005-.317.237-.571.523-.566a.483.483 0 0 1 .37.187c.172.211.465.226.654.033s.202-.521.03-.732zM16.195 13.586a1.404 1.404 0 0 0-.757-.808c-.683-.282-1.444.11-1.698.874-.089.268.033.566.273.666a.418.418 0 0 0 .161.033.468.468 0 0 0 .434-.338c.076-.229.305-.347.51-.262a.413.413 0 0 1 .226.242c.1.263.372.386.607.274s.345-.416.245-.68zM19.176 8.998a.428.428 0 0 0-.654.001l-.436.489a.564.564 0 0 0 .001.733c.09.101.209.151.327.151s.237-.051.327-.152l.436-.489a.564.564 0 0 0-.001-.733zM16.298 15.686h-.617c-.256 0-.463.232-.463.518s.207.518.463.518h.617c.256 0 .463-.232.463-.518s-.207-.518-.463-.518zM21.026 15.686h-.617c-.256 0-.463.232-.463.518s.207.518.463.518h.617c.255 0 .463-.232.463-.518s-.207-.518-.463-.518z" style="fill:var(--color2, #ff751d)"/><path fill="#ff751d" d="m33.088 25.028-.12-.728c-.077-.465-.44-.803-.863-.803a.773.773 0 0 0-.159.016l-2.452.505 1.111-.831c.291-.218.438-.608.375-.994a1.077 1.077 0 0 0-.099-.303l-.336-.666a.907.907 0 0 0-.538-.467.784.784 0 0 0-.34-.024c.124-.764.187-1.545.187-2.34 0-.353-.189-.656-.46-.791a4.414 4.414 0 0 0 .028-3.006c-.028-.08-.07-.152-.125-.213s-.117-.107-.189-.14a3.19 3.19 0 0 0-1.48-.276c-.064-1.446-1.133-2.6-2.437-2.6-.172 0-.339.02-.501.059a4.749 4.749 0 0 0-.216-2.28.651.651 0 0 0-.128-.22.562.562 0 0 0-.192-.142 3.441 3.441 0 0 0-3.437.353 5.252 5.252 0 0 0-1.089-1.952c-.148-.167-.346-.258-.556-.258s-.407.092-.556.258l-2.24 2.514a2.19 2.19 0 0 0-1.552-.662c-.134 0-.27.013-.403.039a2.284 2.284 0 0 0-1.267.746 2.13 2.13 0 0 0-1.725-.138V7.747c0-1.334-.957-2.422-2.142-2.444V4.204c.363-.07.639-.424.639-.85V.864c0-.476-.346-.863-.771-.863H5.293c-.425 0-.771.387-.771.863v2.49c0 .426.277.78.639.85v1.099c-1.184.023-2.142 1.11-2.142 2.444v15.121a5.218 5.218 0 0 0-1.498 3.679c0 2.835 2.222 5.142 4.953 5.142l18.515-.006c.632 0 1.226-.311 1.631-.853a2.563 2.563 0 0 0 .465-1.889l3.698.744a.812.812 0 0 0 .667-.167c.192-.154.323-.392.357-.653l.1-.753a1.093 1.093 0 0 0-.005-.323c-.064-.385-.325-.69-.667-.778l-1.303-.335 2.45-.504c.231-.047.431-.193.565-.409s.182-.476.14-.734zM27.8 14.997c.278 0 .552.049.816.147a3.248 3.248 0 0 1-.221 2.382h-1.246l.398-.446c.18-.203.18-.531-.001-.733s-.474-.202-.654.001l-.21.236a2.487 2.487 0 0 0-.497-.956 2.42 2.42 0 0 1 1.617-.631zm-2.609-2.596c.835 0 1.515.763 1.515 1.702l-.001.052a3.455 3.455 0 0 0-1.32.877 2.084 2.084 0 0 0-.186-.07c-.135-.819-.628-1.475-1.279-1.781.27-.469.739-.78 1.272-.78zm-2.445-2.886c.314 0 .623.057.92.17.239.796.19 1.652-.114 2.393-.25.256-.454.568-.593.92a2.058 2.058 0 0 0-.247.031c-.363.071-.7.247-.983.502a2.734 2.734 0 0 0-.35-.544l1.061-1.191c.18-.203.18-.531-.001-.733s-.474-.202-.654.001l-1.159 1.302a2.226 2.226 0 0 0-.71-.236 3.377 3.377 0 0 1 .79-1.666c.545-.612 1.269-.949 2.039-.949zm-3.545 8.011H18.8c-.068-.192-.235-.329-.43-.329s-.363.136-.43.329h-.472a.565.565 0 0 0-.067-.637.428.428 0 0 0-.654.001l-.436.489a.523.523 0 0 0-.091.147h-.941a4.436 4.436 0 0 1-.593-2.091h7.339a4.459 4.459 0 0 1-.593 2.091h-.98a.523.523 0 0 0-.091-.147l-.436-.489a.429.429 0 0 0-.654-.001.564.564 0 0 0-.067.637zm-1.076-3.127c.174-.724.764-1.258 1.462-1.258s1.288.534 1.462 1.258h-2.925zm.946-6.371a4.28 4.28 0 0 1 .874 1.83 4.315 4.315 0 0 0-.587.943.425.425 0 0 0-.241-.076h-.616c-.255 0-.463.232-.463.518s.207.518.463.518h.541c-.03.143-.054.288-.071.434a2.257 2.257 0 0 0-.523.229c-.308-.596-.819-1.04-1.424-1.218l-.001-.004a2.87 2.87 0 0 0-.186-.664l2.235-2.509zm-8.362 4.675a1.663 1.663 0 0 1-.061-.26c-.133-.857.383-1.675 1.149-1.825a1.301 1.301 0 0 1 1.086.291c.102.085.231.12.356.095s.236-.105.306-.224c.217-.367.549-.61.936-.686.081-.016.163-.024.245-.024.685 0 1.268.549 1.385 1.306.013.087.02.177.02.269 0 .268.184.492.422.515.517.051.957.415 1.162.929a2.895 2.895 0 0 0-.535 1.308h-2.638c-.328 0-.609.227-.727.548a3.243 3.243 0 0 0-1.981-.681c-.449 0-.889.095-1.308.281-.071.032-.135.079-.189.139s-.097.134-.125.213a4.43 4.43 0 0 0-.216.921 1.641 1.641 0 0 1-.328-.769c-.109-.703.22-1.403.799-1.702.218-.113.322-.392.242-.645zm1.379 4.681.126.142h-1.111a3.271 3.271 0 0 1-.085-2.078 2.33 2.33 0 0 1 .816-.147c.697 0 1.353.305 1.846.859a2.7 2.7 0 0 1 .184.231c.078.397.199.777.354 1.135h-.697l-.778-.874c-.181-.203-.473-.203-.654-.001s-.181.53-.001.733zm-1.97.142H8.469a1.72 1.72 0 0 1 .717-1.182c.221.332.511.601.844.783.024.134.053.268.088.399zM5.45 1.036h3.453V3.18H5.45V1.036zm2.814 3.18V5.3H6.089V4.216h2.175zM3.948 9.847h3.004c.256 0 .463-.232.463-.518s-.207-.518-.463-.518H3.948V7.746c0-.777.563-1.409 1.254-1.409h3.949c.692 0 1.255.632 1.255 1.409v1.065h-.864c-.256 0-.463.232-.463.518s.207.518.463.518h.864v.46c-.53.582-.805 1.435-.669 2.313l.001.005c-.742.57-1.138 1.584-.98 2.602.009.059.021.118.033.176a2.524 2.524 0 0 0-.617.543H3.948V9.847zm-.001 7.135h3.689a3.022 3.022 0 0 0-.101.544h-.078c-.426 0-.772.388-.772.866 0 .823.068 1.63.201 2.42a4.54 4.54 0 0 0-.408-.018c-.559 0-1.092.099-1.501.28-.624.276-.797.668-.835.94a5.594 5.594 0 0 0-.196.116v-5.147zm5.858 6.365c.167.149.268.276.327.368h-.017c-.262 0-.732-.118-1.267-.45a3.346 3.346 0 0 1-.531-.404.425.425 0 0 0-.598 0c-.148.141-.331.28-.53.403-.535.332-1.005.45-1.267.45h-.017c.059-.092.161-.218.327-.368.146-.131.207-.346.156-.547s-.205-.348-.391-.372c-.451-.059-.737-.188-.87-.282.167-.117.591-.316 1.353-.316.631 0 1.092.149 1.313.288a.422.422 0 0 0 .453 0c.221-.139.682-.288 1.313-.288.762 0 1.185.199 1.353.316-.134.094-.419.222-.871.282-.185.024-.339.171-.391.372s.01.417.155.547zm-.925 6.305.016.096c.055.333.171.638.333.904H6.477c-2.221 0-4.028-1.842-4.028-4.106 0-1.547.844-2.897 2.087-3.597.143.119.321.222.532.305-.084.16-.142.332-.156.512a.912.912 0 0 0 .184.639c.181.229.459.345.825.345.489 0 1.13-.217 1.715-.58a4.34 4.34 0 0 0 .381-.264c.119.092.247.18.381.264.585.363 1.227.579 1.715.58.367 0 .644-.116.825-.345a.912.912 0 0 0 .184-.639 1.326 1.326 0 0 0-.156-.512c.211-.083.389-.186.532-.305a4.11 4.11 0 0 1 1.982 2.666l-3.272 1.392c-.958.408-1.518 1.52-1.332 2.645zm17.032.513a1.149 1.149 0 0 1-.921.481h-.486l-.303-1.834c-.047-.281-.288-.467-.539-.415s-.417.322-.371.604l.272 1.646-1.592.001-.205-1.24c-.047-.281-.288-.467-.539-.415s-.417.322-.371.604l.174 1.052-3.702.002-.279-1.685c-.047-.281-.288-.467-.539-.415s-.417.322-.371.604l.247 1.496-5.406.002c-.578 0-1.073-.459-1.178-1.093l-.016-.096c-.105-.632.211-1.258.751-1.488l1.818-.774.135.819c.041.249.236.424.454.424a.417.417 0 0 0 .085-.009c.251-.052.417-.322.371-.604l-.166-1.004 2.699-1.148c.239-.102.359-.401.268-.668s-.358-.402-.597-.3l-1.256.534a5.133 5.133 0 0 0-2.458-3.233c-.038-.271-.21-.663-.835-.94-.408-.181-.941-.28-1.501-.28a4.24 4.24 0 0 0-1.077.134v-.313c0-.286-.207-.518-.463-.518a.433.433 0 0 0-.286.111 13.55 13.55 0 0 1-.121-1.646h15.067c.256 0 .463-.232.463-.518s-.207-.518-.463-.518h-.189a5.632 5.632 0 0 0 .461-2.246c0-.457-.312-.834-.71-.876a1.176 1.176 0 0 1 .844-.374c.597 0 1.105.479 1.207 1.138.012.076.018.155.018.234 0 .268.184.492.422.515.553.054 1.005.52 1.1 1.132.025.163.022.323-.003.477h-.496c-.256 0-.463.232-.463.518s.207.518.463.518h3.595c-.012.95-.121 1.879-.325 2.779l-2.507 1.657a2.331 2.331 0 0 0-1.001-1.412 1.923 1.923 0 0 0-1.795-.148l-5.163 2.197c-.239.102-.359.401-.268.668s.358.402.597.3l.68-.289.211 1.277c.041.25.236.424.454.424a.417.417 0 0 0 .085-.009c.251-.052.417-.322.371-.604l-.242-1.462 3.604-1.533c.334-.142.704-.112 1.015.084s.526.53.591.921l.936 5.659c.064.39-.029.789-.257 1.094zm1.651-4.056c-.216.044-.374.252-.379.498s.145.461.359.516l3.444.885-.086.646-3.993-.804-.624-3.774 3.478-2.299.29.575-2.933 2.196c-.182.137-.254.398-.172.626s.296.359.512.315l4.608-.948.103.62-4.606.948z" style="fill:var(--color2, #ff751d)"/></symbol><symbol id="icon-hands-holding-heart-1" viewBox="0 0 29 32"><path d="m28.691 17.829-.508-8.305c-.033-.538-.251-1.029-.615-1.382s-.828-.527-1.308-.487c-.944.077-1.676.968-1.666 2.027l.06 6.771-2.619 3.756c-.418.6-1.112.84-1.741.66l2.849-4.144c.5-.727.417-1.781-.189-2.399-.324-.33-.742-.493-1.179-.459s-.831.261-1.11.638l-4.304 5.806c-.71.958-1.095 2.17-1.084 3.415l.067 7.71c.003.307.226.555.5.555l7.167.011h.001c.14 0 .274-.066.369-.181s.142-.271.13-.428l-.293-3.774 4.758-7.082a4.389 4.389 0 0 0 .717-2.706zm-1.517 2.032-4.873 7.254a.616.616 0 0 0-.099.386l.262 3.378-6.125-.009-.062-7.155a4.458 4.458 0 0 1 .853-2.687l4.304-5.806a.544.544 0 0 1 .845-.066.718.718 0 0 1 .07.885l-3.233 4.703c-.085.123-.12.28-.097.434s.102.29.217.375c1.157.86 2.733.573 3.587-.653l2.726-3.911c.07-.1.107-.224.106-.351l-.062-6.967c-.004-.469.32-.863.738-.898.214-.017.418.059.579.216s.258.374.272.612l.508 8.305c.043.7-.141 1.395-.518 1.955zM8.357 14.504c-.28-.377-.674-.604-1.11-.638s-.855.129-1.179.459c-.606.618-.689 1.672-.189 2.399l2.849 4.144c-.629.18-1.323-.06-1.741-.66l-2.619-3.756.06-6.771c.009-1.06-.723-1.95-1.666-2.027-.479-.039-.945.134-1.308.487s-.582.844-.615 1.382l-.508 8.305c-.059.969.195 1.93.717 2.706l4.758 7.082-.292 3.774c-.012.157.035.312.13.428s.229.181.369.181h.001l7.167-.011c.274 0 .497-.248.5-.555l.067-7.71c.011-1.244-.374-2.457-1.084-3.415L8.36 14.502zm4.324 16.364-6.125.009.262-3.378a.605.605 0 0 0-.099-.386l-4.873-7.254a3.17 3.17 0 0 1-.518-1.955l.508-8.305a.928.928 0 0 1 .272-.612.742.742 0 0 1 .52-.218l.059.002c.418.034.742.428.738.898l-.062 6.967a.606.606 0 0 0 .106.351l2.726 3.911c.855 1.226 2.43 1.513 3.588.653.116-.086.194-.222.217-.375s-.012-.311-.097-.434L6.67 16.039a.718.718 0 0 1 .07-.885c.119-.122.274-.182.435-.169s.307.096.41.235l4.304 5.806a4.46 4.46 0 0 1 .853 2.687l-.062 7.155zM24.319 6.31c0-1.685-.586-3.27-1.65-4.462S20.19 0 18.685 0s-2.92.656-3.984 1.848l-.19.213-.19-.213C13.257.656 11.842 0 10.337 0s-2.92.656-3.984 1.848c-2.197 2.46-2.197 6.464 0 8.924l7.804 8.741c.098.109.226.164.354.164s.256-.055.354-.164l7.804-8.741c1.064-1.192 1.65-2.776 1.65-4.462zM14.51 18.323 7.06 9.979c-1.806-2.023-1.806-5.315 0-7.338.875-.98 2.038-1.52 3.276-1.52s2.401.54 3.276 1.52l.544.61c.094.105.221.164.354.164s.26-.059.354-.164l.544-.61c.875-.98 2.038-1.52 3.276-1.52s2.401.54 3.276 1.52 1.357 2.283 1.357 3.669-.482 2.689-1.357 3.669l-7.45 8.344z"/></symbol><symbol id="icon-invoice-1" viewBox="0 0 32 32"><path d="M30.679 0H1.321C.87 0 .502.369.502.819s.369.819.819.819h1.768V31.16c0 .3.164.58.43.724s.587.13.84-.041l3.557-2.369 3.571 2.376a.816.816 0 0 0 .908 0l3.557-2.369 3.571 2.376a.816.816 0 0 0 .908 0l3.557-2.369 3.571 2.376a.831.831 0 0 0 .451.137c.13 0 .266-.034.389-.096a.822.822 0 0 0 .43-.724l-.014-29.522h1.864c.451 0 .819-.369.819-.819S31.129 0 30.679 0zm-3.482 29.631-2.751-1.83a.816.816 0 0 0-.908 0l-3.557 2.376-3.571-2.376a.816.816 0 0 0-.908 0l-3.557 2.369-3.571-2.369a.816.816 0 0 0-.908 0l-2.738 1.823V1.632H27.19l.007 27.999z"/><path d="M8.497 13.081h8.582c.451 0 .819-.369.819-.819s-.369-.819-.819-.819H8.497c-.451 0-.819.369-.819.819s.362.819.819.819zM8.497 15.928h6.431c.451 0 .819-.369.819-.819s-.369-.819-.819-.819H8.497c-.451 0-.819.369-.819.819s.362.819.819.819zM21.366 13.081h2.144c.451 0 .819-.369.819-.819s-.369-.819-.819-.819h-2.144c-.451 0-.819.369-.819.819s.362.819.819.819zM21.366 15.928h2.144c.451 0 .819-.369.819-.819s-.369-.819-.819-.819h-2.144c-.451 0-.819.369-.819.819s.362.819.819.819zM8.497 6.507h8.582c.451 0 .819-.369.819-.819s-.369-.819-.819-.819H8.497c-.451 0-.819.369-.819.819s.362.819.819.819zM8.497 9.347h6.431c.451 0 .819-.369.819-.819s-.369-.819-.819-.819H8.497c-.451 0-.819.369-.819.819s.362.819.819.819zM21.366 6.507h2.144c.451 0 .819-.369.819-.819s-.369-.819-.819-.819h-2.144c-.451 0-.819.369-.819.819s.362.819.819.819zM21.366 9.347h2.144c.451 0 .819-.369.819-.819s-.369-.819-.819-.819h-2.144c-.451 0-.819.369-.819.819s.362.819.819.819zM8.497 19.738h8.582c.451 0 .819-.369.819-.819s-.369-.819-.819-.819H8.497c-.451 0-.819.369-.819.819s.362.819.819.819zM8.497 22.578h6.431c.451 0 .819-.369.819-.819s-.369-.819-.819-.819H8.497c-.451 0-.819.369-.819.819s.362.819.819.819zM21.366 19.738h2.144c.451 0 .819-.369.819-.819s-.369-.819-.819-.819h-2.144c-.451 0-.819.369-.819.819s.362.819.819.819zM21.366 22.578h2.144c.451 0 .819-.369.819-.819s-.369-.819-.819-.819h-2.144c-.451 0-.819.369-.819.819s.362.819.819.819z"/></symbol><symbol id="icon-kite-1" viewBox="0 0 33 32"><path d="m30.415 15.724-1.272-1.285V2.211l1.069-1.08c.21-.212.21-.555 0-.767s-.549-.212-.759 0l-1.069 1.08H16.28L15.008.159c-.21-.212-.549-.212-.759 0s-.21.555 0 .767l1.218 1.23-3.777 16.168a1.552 1.552 0 0 0-.27 1.407c.162.545.606.953 1.157 1.066l2.408.494c.457.094.845.385 1.065.8s.246.903.071 1.339a1.557 1.557 0 0 1-1.771.951L5.328 22.45a2.77 2.77 0 0 0-3.187 1.812c-.266.768-.188 1.613.213 2.318s1.085 1.198 1.875 1.352l.037.007c.711.139 1.315.588 1.657 1.233s.377 1.402.097 2.076a.544.544 0 0 0 .494.752c.21 0 .409-.125.495-.333.406-.977.354-2.073-.141-3.007s-1.37-1.585-2.399-1.786l-.037-.007c-.484-.094-.903-.396-1.149-.828s-.293-.949-.13-1.42a1.697 1.697 0 0 1 1.952-1.11l9.022 1.931a2.627 2.627 0 0 0 2.988-1.604c.295-.736.252-1.559-.12-2.259s-1.027-1.192-1.797-1.35l-2.408-.494a.444.444 0 0 1-.343-.316.46.46 0 0 1 .036-.354l15.954-3.804 1.218 1.23a.532.532 0 0 0 .759 0 .546.546 0 0 0 0-.767zM27.311 2.528l-4.979 5.03-4.979-5.03h9.957zm-10.952.529 5.214 5.268-8.435 8.522 3.221-13.79zm-2.462 14.556 8.435-8.522 5.214 5.268-13.649 3.254zm14.173-4.258-4.979-5.03 4.979-5.03v10.06z"/></symbol><symbol id="icon-tools-1" viewBox="0 0 32 32"><path d="M21.709 9.697a.625.625 0 1 0 0 1.25.625.625 0 0 0 0-1.25zM10.353 21.052a.625.625 0 1 0 0 1.25.625.625 0 0 0 0-1.25z"/><path d="M31.254 3.845a.626.626 0 0 0-.585.168l-2.591 2.612h-1.242l-1.367-1.417v-1.26l2.554-2.592a.626.626 0 0 0-.245-1.031 6.245 6.245 0 0 0-1.996-.326 6.18 6.18 0 0 0-5.074 2.604 6.175 6.175 0 0 0-.964 5.265l-4.604 4.604-7.67-7.688V3.275a.626.626 0 0 0-.303-.536L2.748.087a.623.623 0 0 0-.763.094L.217 1.948a.626.626 0 0 0-.094.764l2.651 4.419a.625.625 0 0 0 .536.303h1.508l7.671 7.688-4.586 4.586a6.18 6.18 0 0 0-5.267.966 6.179 6.179 0 0 0-2.603 5.073c0 .683.11 1.354.326 1.996a.625.625 0 0 0 1.036.241l2.591-2.611h1.249l1.423 1.423v1.249l-2.611 2.591a.627.627 0 0 0 .241 1.036 6.24 6.24 0 0 0 1.996.326 6.18 6.18 0 0 0 5.073-2.603 6.18 6.18 0 0 0 .966-5.267l3.683-3.683.844.916-.387.387a.625.625 0 0 0 .884.884l.351-.351 7.916 8.599a3.75 3.75 0 1 0 5.322-5.284l-.02-.019-8.613-7.901.347-.347a.625.625 0 0 0-.884-.884l-.384.385-.918-.843 3.701-3.701a6.257 6.257 0 0 0 7.543-8.034.625.625 0 0 0-.451-.409zM5.518 6.371a.62.62 0 0 0-.442-.177H3.662L1.444 2.49l1.077-1.077 3.697 2.219v1.414c0 .166.066.324.183.441l7.854 7.871-.884.884-7.853-7.87zm15.898 12.191 8.642 7.928a2.5 2.5 0 0 1-3.536 3.536l-7.942-8.627 2.837-2.836zm-.922-.846-2.762 2.762-.844-.916 2.688-2.688.918.843zm5.286-6.466a4.986 4.986 0 0 1-1.597-.261.628.628 0 0 0-.641.15L11.171 23.51a.625.625 0 0 0-.15.642 4.948 4.948 0 0 1-.682 4.515 4.941 4.941 0 0 1-4.057 2.082c-.183 0-.365-.01-.545-.029l1.985-1.97a.626.626 0 0 0 .185-.444v-1.768a.625.625 0 0 0-.183-.442l-1.789-1.789a.625.625 0 0 0-.442-.183H3.725a.628.628 0 0 0-.444.185l-1.97 1.985a4.936 4.936 0 0 1-.029-.545c0-1.628.759-3.107 2.082-4.057a4.948 4.948 0 0 1 4.515-.682.624.624 0 0 0 .641-.15L20.891 8.489a.624.624 0 0 0 .15-.641 4.945 4.945 0 0 1 .681-4.514 4.943 4.943 0 0 1 4.059-2.083c.188 0 .376.01.561.031l-1.944 1.973a.625.625 0 0 0-.18.438v1.768c0 .162.063.318.175.434l1.727 1.789c.118.122.28.191.45.191h1.768a.625.625 0 0 0 .444-.185l1.97-1.985a5.006 5.006 0 0 1-4.971 5.545z"/><path d="m19.499 11.647-7.821 7.821a.625.625 0 0 0 .884.884l7.821-7.821a.625.625 0 0 0-.884-.884zM27.397 28.25a.625.625 0 0 0 .883-.886l-5.634-5.616a.625.625 0 0 0-.883.885l5.634 5.616z"/></symbol><symbol id="icon-ufo-1" viewBox="0 0 32 32"><path d="M31.996 22.334c-.956-7.667-8.11-8.803-10.129-8.971V6.4c0-.048-.067-4.8-5.867-4.8s-5.867 4.752-5.867 4.8v6.963C8.114 13.531.962 14.666.004 22.334L0 22.4v2.133c0 .295.239.533.533.533H3.2v1.067H1.6a.533.533 0 0 0-.533.533c0 1.291.78 3.733 3.733 3.733s3.733-2.442 3.733-3.733A.533.533 0 0 0 8 26.133H6.4v-1.067h8v1.067h-1.6a.533.533 0 0 0-.533.533c0 1.291.78 3.733 3.733 3.733s3.733-2.442 3.733-3.733a.533.533 0 0 0-.533-.533h-1.6v-1.067h8v1.067H24a.533.533 0 0 0-.533.533c0 1.291.78 3.733 3.733 3.733s3.733-2.442 3.733-3.733a.533.533 0 0 0-.533-.533h-1.6v-1.067h2.667a.533.533 0 0 0 .533-.533V22.4c0-.012 0-.053-.004-.066zM11.2 6.4c0-.153.053-3.733 4.8-3.733 4.714 0 4.8 3.583 4.8 3.733v6.933h-1.067v-3.2h-1.067v3.2h-7.467V6.4zm-5.013 9.034a12.37 12.37 0 0 1 4.48-1.035h10.667a12.37 12.37 0 0 1 4.48 1.035 8.3 8.3 0 0 1 5.033 6.432H1.154a8.301 8.301 0 0 1 5.033-6.432zM4.8 29.333A2.447 2.447 0 0 1 2.189 27.2h5.219A2.459 2.459 0 0 1 4.8 29.333zm.533-3.2H4.266v-1.067h1.067v1.067zM16 29.333a2.446 2.446 0 0 1-2.611-2.133h5.219A2.459 2.459 0 0 1 16 29.333zm.533-3.2h-1.067v-1.067h1.067v1.067zm10.667 3.2a2.446 2.446 0 0 1-2.613-2.133h5.221a2.459 2.459 0 0 1-2.608 2.133zm.533-3.2h-1.067v-1.067h1.067v1.067zm3.2-2.133H1.066v-1.067h29.867V24z"/><path d="M16 15.467a2.667 2.667 0 1 0 0 5.334 2.667 2.667 0 0 0 0-5.334zm0 4.266a1.6 1.6 0 1 1 0-3.2 1.6 1.6 0 0 1 0 3.2z"/><path d="M17.067 18.133a1.067 1.067 0 1 1-2.135 0 1.067 1.067 0 0 1 2.135 0zM18.667 8h1.067v1.067h-1.067V8zM18.667 6.4v.533h1.067V6.4c0-.273-.107-2.667-3.733-2.667V4.8c2.475 0 2.667 1.227 2.667 1.6zM11.2 17.6h1.067v1.067H11.2V17.6zM9.067 17.6h1.067v1.067H9.067V17.6zM19.733 17.6H20.8v1.067h-1.067V17.6zM21.867 17.6h1.067v1.067h-1.067V17.6z"/></symbol></defs></svg>