<svg xmlns="http://www.w3.org/2000/svg" aria-hidden="true" style="position:absolute;width:0;height:0;overflow:hidden"><defs><symbol id="icon-salary-1-1" viewBox="0 0 32 32"><path d="M11.67 19.346a.469.469 0 0 0-.469-.469H6.655a.469.469 0 0 0-.469.469v3.03c0 .259.21.469.469.469h4.546c.259 0 .469-.21.469-.469v-3.03zm-.937 2.562H7.125v-2.093h3.608v2.093zM22.819 21.835h2.525a.469.469 0 0 0 0-.938h-2.525a.469.469 0 0 0 0 .938zM22.819 19.815h2.525a.469.469 0 0 0 0-.938h-2.525a.469.469 0 0 0 0 .938z"/><path d="M27.364 24.402a.469.469 0 0 0-.469.469V30.9c0 .09-.073.163-.163.163H5.266a.163.163 0 0 1-.163-.163V20.527a.469.469 0 0 0-.938 0V30.9c0 .607.494 1.1 1.1 1.1h21.466c.607 0 1.1-.494 1.1-1.1v-6.029a.469.469 0 0 0-.469-.469zM26.733 15.91h-7.739v-2.378a7.106 7.106 0 0 0 4.104-6.435A7.106 7.106 0 0 0 16-.001a7.078 7.078 0 0 0-3.818 1.113 7.11 7.11 0 0 0-2.571 2.89.468.468 0 1 0 .843.409A6.12 6.12 0 0 1 16 .936c3.397 0 6.16 2.764 6.16 6.16s-2.764 6.16-6.16 6.16a6.167 6.167 0 0 1-6.119-6.877.47.47 0 0 0-.932-.108 7.107 7.107 0 0 0 4.057 7.26v2.378H5.267c-.607 0-1.1.494-1.1 1.1v1.318a.469.469 0 0 0 .938 0v-1.318c0-.09.073-.163.163-.163h6.101l4.279 4.891a.468.468 0 0 0 .706 0l4.279-4.891h6.101c.09 0 .163.073.163.163v5.66a.469.469 0 0 0 .938 0v-5.66c0-.607-.494-1.1-1.1-1.1zM16 20.718l-3.386-3.87h.861c.259 0 .469-.21.469-.469v-2.487a7.099 7.099 0 0 0 4.114 0v2.487c0 .259.21.469.469.469h.861l-3.386 3.87z"/><path d="M6.656 27.454h1.263a.469.469 0 0 0 0-.938H6.656a.469.469 0 0 0 0 .938zM11.202 26.517H9.939a.469.469 0 0 0 0 .938h1.263a.469.469 0 0 0 0-.938zM14.485 27.454a.469.469 0 0 0 0-.938h-1.263a.469.469 0 0 0 0 .938h1.263zM17.768 27.454a.469.469 0 0 0 0-.938h-1.263a.469.469 0 0 0 0 .938h1.263zM6.656 29.98h5.051a.469.469 0 0 0 0-.938H6.656a.469.469 0 0 0 0 .938zM19.824 28.248c0 .955.777 1.731 1.732 1.731.498 0 .947-.211 1.263-.549.316.337.765.549 1.263.549.955 0 1.731-.777 1.731-1.731s-.777-1.732-1.731-1.732c-.498 0-.947.211-1.263.549a1.728 1.728 0 0 0-1.263-.549c-.955 0-1.732.777-1.732 1.732zm4.257-.794a.795.795 0 1 1-.001 1.59.795.795 0 0 1 .001-1.59zm-1.731.794a.795.795 0 1 1-1.59-.001.795.795 0 0 1 1.59.001zM14.447 9.551a.469.469 0 1 0-.513.785c.606.396 1.02.514 1.555.543v.517a.469.469 0 0 0 .938 0v-.554c1.063-.207 1.683-1.082 1.82-1.9.176-1.05-.373-1.962-1.399-2.325-.138-.049-.28-.1-.422-.154V4.215c.358.084.571.265.589.281.19.173.485.16.659-.03a.467.467 0 0 0-.027-.662 2.44 2.44 0 0 0-1.222-.543v-.462a.469.469 0 0 0-.938 0v.497a3.334 3.334 0 0 0-.218.056c-.676.204-1.181.782-1.318 1.509-.125.663.087 1.302.554 1.668.248.195.557.373.981.562v2.848c-.37-.026-.623-.116-1.042-.389zm.639-3.757c-.19-.149-.271-.439-.211-.757.054-.286.244-.63.614-.767v1.781a2.802 2.802 0 0 1-.403-.257zm1.449 1.708c.878.311.824 1.063.787 1.286-.073.437-.378.9-.896 1.082V7.463l.109.039z"/></symbol><symbol id="icon-salary-1" viewBox="0 0 32 32"><path fill="#ff751d" d="m15.413 12.95-.331-.12v-2.017c.368.146.626.35.637.358a.626.626 0 0 0 .795-.965c-.037-.03-.617-.502-1.431-.701v-.306a.625.625 0 0 0-1.25 0v.277a2.54 2.54 0 0 0-.2.05c-.719.216-1.237.822-1.388 1.62-.146.775.107 1.549.644 1.97.245.192.544.368.944.552v2.643c-.283-.04-.495-.136-.833-.357A.625.625 0 1 0 12.316 17c.594.388 1.012.525 1.518.568v.389a.625.625 0 0 0 1.25 0v-.448c1.04-.264 1.706-1.151 1.853-2.027.189-1.126-.422-2.144-1.522-2.532zm-1.581-.696c-.062-.04-.12-.08-.172-.121-.169-.132-.245-.443-.187-.755.02-.105.1-.415.359-.58v1.456zm1.87 3.021c-.057.34-.268.696-.62.898v-2.012c.678.285.661.869.62 1.114z" style="fill:var(--color1, #ff751d)"/><path fill="#ff751d" d="m29.594 13.353-3.969-2.621V.625A.625.625 0 0 0 25 0H10a.625.625 0 0 0-.625.625V3H7a.625.625 0 0 0-.625.625v7.107l-3.969 2.621a.627.627 0 0 0-.281.521v17.5c0 .345.28.625.625.625h10.438a.625.625 0 0 0 0-1.25H4.259l9.112-9.112 2.284 1.509a.621.621 0 0 0 .688 0l2.285-1.509 9.112 9.112h-8.929a.625.625 0 0 0 0 1.25h10.438c.345 0 .625-.28.625-.625v-17.5a.626.626 0 0 0-.28-.522zm-1.478.522-2.491 1.645v-3.29l2.491 1.645zM10.625 1.25h13.75v15.095l-1.75 1.156V3.625A.625.625 0 0 0 22 3H10.625V1.25zm-4.25 10.98v3.29l-2.491-1.645 2.491-1.645zm-3 17.636V15.037l8.931 5.898-8.931 8.931zM16 21.876l-8.375-5.531V4.25h13.75v14.077L16 21.877zm12.625-6.839v14.829l-8.931-8.931 8.931-5.898z" style="fill:var(--color1, #ff751d)"/><path fill="#ff751d" d="M16 30.75c-.164 0-.326.067-.442.183a.63.63 0 0 0 0 .884.63.63 0 0 0 .884 0 .63.63 0 0 0 0-.884.63.63 0 0 0-.442-.183z" style="fill:var(--color1, #ff751d)"/></symbol></defs></svg>