<svg width="59" height="57" viewBox="0 0 59 57" fill="none" xmlns="http://www.w3.org/2000/svg">
<rect x="0.928589" y="9.72266" width="52.6786" height="46" rx="20" fill="#F5F6FB"/>
<path d="M24.4632 21.1923C23.9894 20.6114 23.3147 20.2712 22.6124 20.259C21.1996 20.2387 20.0309 21.5002 20.007 23.0812C19.9993 23.5909 20.3619 24.011 20.8169 24.0196C20.8217 24.0197 20.8263 24.0197 20.8311 24.0197C21.2797 24.0197 21.6471 23.6167 21.6547 23.1124C21.6631 22.5477 22.0775 22.0946 22.5865 22.1045C22.8406 22.1089 23.075 22.227 23.2465 22.4372C23.5534 22.8136 24.0747 22.8399 24.4106 22.4961C24.7465 22.1525 24.7702 21.5686 24.4632 21.1923Z" fill="#071F41"/>
<path d="M28.847 24.2001C28.5945 23.5352 28.1028 23.0104 27.4978 22.7602C26.2812 22.2576 24.9249 22.9561 24.4742 24.3171C24.3159 24.7951 24.5335 25.3261 24.9601 25.5034C25.0546 25.5427 25.1514 25.5613 25.2465 25.5613C25.5813 25.5613 25.8959 25.3312 26.0192 24.9591C26.1545 24.5503 26.5624 24.3411 26.9272 24.4919C27.1105 24.5677 27.2538 24.7206 27.3304 24.9224C27.5085 25.3913 27.9925 25.6101 28.4111 25.4105C28.83 25.2111 29.025 24.6692 28.847 24.2001Z" fill="#071F41"/>
<path d="M34.1576 16.027C33.8355 15.6668 33.3138 15.6676 32.9924 16.0283L32.2157 16.9C31.8943 17.2608 31.8948 17.8451 32.2169 18.205C32.3776 18.3848 32.5883 18.4746 32.7989 18.4746C33.01 18.4746 33.2212 18.3843 33.3821 18.2037L34.1589 17.332C34.4803 16.9713 34.4798 16.3869 34.1576 16.027Z" fill="#071F41"/>
<path d="M29.0313 27.9404H27.9331C27.4779 27.9404 27.1091 28.3536 27.1091 28.8633C27.1091 29.3729 27.4779 29.7861 27.9331 29.7861H29.0313C29.4865 29.7861 29.8553 29.3729 29.8553 28.8633C29.8553 28.3536 29.4865 27.9404 29.0313 27.9404Z" fill="#071F41"/>
<path d="M37.4517 27.9404H36.3534C35.8982 27.9404 35.5294 28.3536 35.5294 28.8633C35.5294 29.3729 35.8983 29.7861 36.3534 29.7861H37.4517C37.9067 29.7861 38.2757 29.3729 38.2757 28.8633C38.2757 28.3536 37.9067 27.9404 37.4517 27.9404Z" fill="#071F41"/>
<path d="M58.9378 44.5803L58.7232 43.2832C58.5864 42.4543 57.9402 41.8528 57.1866 41.8528C57.0921 41.8528 56.9967 41.8625 56.9029 41.8818L52.5347 42.7805L54.5129 41.2994C55.0314 40.9113 55.2934 40.2171 55.1803 39.5284C55.1489 39.3398 55.09 39.1588 55.0048 38.9893L54.4061 37.8021C54.201 37.3942 53.8512 37.0911 53.4475 36.971C53.2497 36.9119 53.043 36.8988 52.8412 36.9282C53.0615 35.5666 53.1751 34.1759 53.1751 32.7602C53.1751 32.1321 52.8378 31.5915 52.3561 31.3515C52.9856 29.6746 53.0286 27.7548 52.4063 25.9967C52.3559 25.8538 52.2809 25.7262 52.1839 25.6174C52.0877 25.5096 51.9751 25.4263 51.8473 25.3688C51.1017 25.0362 50.318 24.8677 49.5181 24.8677C49.4158 24.8677 49.314 24.8706 49.2125 24.876C49.0983 22.3003 47.195 20.2441 44.8714 20.2441C44.5654 20.2441 44.267 20.2805 43.9788 20.3484C44.179 19.0072 44.0611 17.6041 43.5947 16.2868C43.5447 16.142 43.4694 16.012 43.3671 15.8956C43.2687 15.7854 43.1532 15.7003 43.0251 15.6434C42.2219 15.2851 41.3777 15.1035 40.516 15.1035C39.2178 15.1035 37.976 15.5122 36.904 16.2721C36.5123 15.0014 35.8664 13.8085 34.964 12.7955C34.6997 12.4989 34.3481 12.3355 33.9741 12.3355C33.6 12.3355 33.2484 12.4989 32.9838 12.7957L28.9943 17.2741C28.256 16.5366 27.2845 16.0957 26.23 16.0957C25.9908 16.0957 25.7492 16.1192 25.512 16.1655C24.6525 16.3331 23.8616 16.8042 23.2553 17.4942C22.4778 17.074 21.5871 16.9307 20.7312 17.0975C20.5429 17.1342 20.3602 17.1859 20.1829 17.2489V13.7979C20.1829 11.4214 18.4775 9.48454 16.3679 9.44369V7.48651C17.0137 7.36137 17.5067 6.73101 17.5067 5.97255V1.53808C17.5067 0.690044 16.8907 0 16.1334 0H9.43279C8.6755 0 8.0595 0.690044 8.0595 1.53808V5.97255C8.0595 6.73101 8.55257 7.36137 9.19834 7.48651V9.44344C7.08875 9.48417 5.38346 11.421 5.38346 13.7977V40.732C3.73837 42.396 2.71423 44.7178 2.71423 47.2853C2.71423 52.3358 6.67204 56.4448 11.537 56.4448L44.5164 56.434C45.642 56.4335 46.7007 55.8794 47.4207 54.914C48.1221 53.9742 48.4201 52.7534 48.2484 51.5495L54.8355 52.8754C54.9267 52.8937 55.02 52.9031 55.1127 52.9031C55.4412 52.9031 55.7559 52.7901 56.0224 52.5767C56.3651 52.3026 56.597 51.8782 56.6589 51.4127L56.8373 50.0719C56.863 49.8798 56.8601 49.6864 56.8288 49.4968C56.7155 48.8112 56.2493 48.2672 55.6412 48.1111L53.3195 47.5146L57.6833 46.6167C58.0949 46.5321 58.4519 46.2733 58.6888 45.8881C58.9252 45.5038 59.0136 45.0394 58.9378 44.5803ZM49.5181 26.7131C50.0141 26.7131 50.5018 26.8011 50.9707 26.9745C51.3897 28.4035 51.2329 29.9449 50.5768 31.2182H48.3571L49.0654 30.4231C49.3868 30.0623 49.3862 29.478 49.0639 29.1179C48.7417 28.7579 48.22 28.7585 47.8987 29.1194L47.524 29.5401C47.3483 28.8923 47.0416 28.3122 46.6384 27.8364C47.4562 27.1091 48.4601 26.7131 49.5181 26.7131ZM44.8714 22.0895C46.3594 22.0895 47.57 23.4494 47.57 25.121C47.57 25.152 47.5687 25.1827 47.5679 25.2134C46.6994 25.5298 45.8988 26.0583 45.216 26.776C45.1073 26.7299 44.9971 26.687 44.884 26.652C44.6429 25.1936 43.7655 24.0247 42.6063 23.4787C43.0874 22.644 43.9221 22.0895 44.8714 22.0895ZM40.5158 16.9489C41.0755 16.9489 41.6255 17.0503 42.1554 17.2509C42.5814 18.6693 42.4944 20.193 41.9516 21.5128C41.5055 21.968 41.1435 22.5254 40.8961 23.1519C40.749 23.1615 40.6019 23.1797 40.4565 23.208C39.8109 23.3339 39.2088 23.6477 38.705 24.1027C38.5331 23.7508 38.3228 23.4261 38.0817 23.1337L39.9713 21.0126C40.2927 20.6519 40.292 20.0675 39.9698 19.7076C39.6477 19.3476 39.126 19.3482 38.8045 19.7091L36.7393 22.0274C36.3463 21.8193 35.9216 21.6746 35.4752 21.6069C35.668 20.5057 36.1452 19.468 36.8832 18.6394C37.8543 17.5492 39.1444 16.9489 40.5158 16.9489ZM34.202 31.2182H33.4878C33.3675 30.8754 33.0701 30.6324 32.7213 30.6324C32.3725 30.6324 32.0751 30.8755 31.9548 31.2182H31.1145C31.3097 30.8624 31.2702 30.3909 30.9948 30.083C30.6727 29.723 30.1509 29.7236 29.8295 30.0844L29.0529 30.956C28.9831 31.0343 28.9295 31.1235 28.89 31.2182H27.213C26.5849 30.1387 26.2016 28.8646 26.1562 27.4939H39.2284C39.183 28.8646 38.7997 30.1387 38.1716 31.2182H36.4264C36.3871 31.1235 36.3333 31.0341 36.2636 30.9559L35.4871 30.0842C35.1655 29.7236 34.644 29.7226 34.3219 30.0828C34.0462 30.3906 34.0068 30.8622 34.202 31.2182ZM32.2857 25.6482C32.5963 24.359 33.6462 23.4077 34.8905 23.4077C36.135 23.4077 37.1849 24.3591 37.4955 25.6482H32.2857ZM33.9707 14.3007C34.7544 15.2494 35.2726 16.3758 35.5268 17.5597C35.1061 18.0717 34.7566 18.6375 34.481 19.2395C34.3558 19.1536 34.2092 19.1033 34.0517 19.1033H32.9538C32.4987 19.1033 32.1298 19.5165 32.1298 20.0262C32.1298 20.5358 32.4987 20.949 32.9538 20.949H33.9169C33.8628 21.2038 33.8207 21.4618 33.7901 21.7216C33.463 21.8179 33.1505 21.9549 32.8581 22.1294C32.3089 21.0679 31.3994 20.2768 30.3219 19.9595C30.3216 19.9569 30.3211 19.9543 30.3207 19.9517C30.2561 19.5341 30.1434 19.1379 29.9897 18.7696L33.9707 14.3007ZM19.0757 22.628C19.0273 22.4766 18.9907 22.3214 18.9667 22.1656C18.7304 20.6397 19.6488 19.1818 21.0136 18.9157C21.1576 18.8876 21.3038 18.8733 21.4482 18.8733C21.991 18.8733 22.5098 19.0673 22.9482 19.4341C23.1296 19.5859 23.359 19.6473 23.5822 19.604C23.8055 19.5606 24.0029 19.4162 24.1281 19.2047C24.515 18.5512 25.1068 18.1176 25.7945 17.9835C25.9388 17.9553 26.0854 17.9412 26.23 17.9412C27.4508 17.9412 28.4884 18.9194 28.6969 20.2673C28.7209 20.4218 28.7332 20.5827 28.7334 20.7457C28.7341 21.2234 29.0603 21.6216 29.4853 21.6634C30.4065 21.7541 31.1907 22.4034 31.5542 23.3182C31.0675 23.9724 30.7301 24.7712 30.602 25.6482H25.903C25.3187 25.6482 24.8174 26.0521 24.6084 26.6238C23.5746 25.8352 22.3562 25.4103 21.0793 25.4103C20.2794 25.4103 19.4958 25.579 18.7496 25.9117C18.623 25.9683 18.5099 26.0519 18.4134 26.1599C18.3156 26.2694 18.2406 26.3978 18.1914 26.5385C18.0018 27.0741 17.8753 27.6248 17.807 28.1789C17.5117 27.8023 17.3036 27.3341 17.2223 26.8087C17.0285 25.5566 17.6137 24.3099 18.645 23.7769C19.0326 23.5765 19.2195 23.078 19.0757 22.628ZM21.532 30.9659L21.7568 31.2182H19.7778C19.3335 30.0638 19.2661 28.7498 19.6267 27.5174C20.0963 27.3437 20.5838 27.2559 21.0793 27.2559C22.3209 27.2559 23.4889 27.7994 24.3679 28.7861C24.4848 28.9174 24.5936 29.0549 24.6959 29.1971C24.8356 29.9051 25.0501 30.5815 25.3265 31.2181H24.0848L22.6986 29.6621C22.377 29.3014 21.8553 29.3004 21.5334 29.6606C21.2112 30.0207 21.2105 30.6051 21.532 30.9659ZM18.023 31.2182H15.0856C15.2165 30.3243 15.6966 29.5623 16.363 29.1129C16.7576 29.7049 17.2725 30.1835 17.8657 30.5078C17.9077 30.7472 17.9592 30.9846 18.023 31.2182ZM9.70744 1.8457H15.8588V5.66493H9.70744V1.8457ZM14.7199 7.51063V9.4416H10.8464V7.51063H14.7199ZM7.03151 17.5403H12.3822C12.8373 17.5403 13.2061 17.1271 13.2061 16.6174C13.2061 16.1078 12.8373 15.6946 12.3822 15.6946H7.03151V13.7977C7.03151 12.4134 8.0339 11.2873 9.26601 11.2873H16.3003C17.5325 11.2873 18.5349 12.4134 18.5349 13.7977V15.6946H16.9964C16.5412 15.6946 16.1724 16.1078 16.1724 16.6174C16.1724 17.1271 16.5412 17.5403 16.9964 17.5403H18.5349V18.3594C17.5909 19.396 17.1006 20.9163 17.3427 22.4801C17.3431 22.4832 17.3437 22.4864 17.3441 22.4896C16.0222 23.5053 15.3179 25.3111 15.5984 27.124C15.6148 27.2298 15.6353 27.3339 15.6577 27.4369C15.2461 27.6911 14.8764 28.0194 14.5595 28.4035H7.03151V17.5403ZM7.0314 30.2491H13.6027C13.5153 30.5602 13.4535 30.8839 13.4234 31.2182H13.2846C12.5262 31.2182 11.9091 31.9099 11.9091 32.76C11.9091 34.2254 12.0307 35.6639 12.2664 37.0713C12.0296 37.05 11.7868 37.0386 11.5398 37.0386C10.5434 37.0386 9.59395 37.2156 8.86677 37.5373C7.75441 38.0292 7.44691 38.7277 7.37978 39.2111C7.2619 39.2768 7.1461 39.3462 7.0314 39.4172V30.2491ZM17.4652 41.586C17.7619 41.8519 17.9433 42.0779 18.0485 42.241C18.0386 42.2411 18.0282 42.2412 18.0178 42.2412C17.5514 42.2412 16.7135 42.0307 15.7607 41.4399C15.4059 41.2198 15.0791 40.9711 14.8154 40.721C14.508 40.4292 14.0572 40.4295 13.7501 40.7211C13.4864 40.9715 13.1597 41.2201 12.8052 41.4397C11.8522 42.0307 11.0143 42.2412 10.548 42.2412C10.5373 42.2412 10.5271 42.2411 10.5171 42.241C10.6222 42.0779 10.8035 41.8518 11.1004 41.5857C11.3598 41.3532 11.4691 40.9688 11.3776 40.6111C11.286 40.2533 11.0115 39.992 10.6814 39.9487C9.87729 39.8432 9.36885 39.6139 9.13077 39.4471C9.42905 39.239 10.1831 38.8843 11.5402 38.8843C12.6641 38.8843 13.4855 39.1489 13.8795 39.3967C14.1301 39.5542 14.4356 39.5542 14.6862 39.3969C15.0804 39.1491 15.902 38.8844 17.0258 38.8844C18.383 38.8844 19.137 39.2393 19.4351 39.4472C19.1972 39.6142 18.6886 39.8433 17.8843 39.9489C17.5542 39.9923 17.2796 40.2534 17.1881 40.6113C17.0963 40.9692 17.2056 41.3536 17.4652 41.586ZM15.8169 52.8184L15.8453 52.9894C15.9433 53.5821 16.1499 54.1261 16.4386 54.5991H11.537C7.58083 54.5991 4.36218 51.3182 4.36218 47.2853C4.36218 44.5291 5.86598 42.1253 8.08037 40.8788C8.33471 41.0915 8.65177 41.2748 9.02794 41.4227C8.87875 41.708 8.77482 42.0149 8.75032 42.335C8.7178 42.7605 8.83403 43.1646 9.07793 43.4729C9.40016 43.8804 9.89476 44.087 10.548 44.087C11.4186 44.087 12.5608 43.701 13.6034 43.0545C13.8434 42.9058 14.0704 42.7487 14.2829 42.5845C14.4953 42.7485 14.7222 42.9057 14.9624 43.0547C16.005 43.701 17.1472 44.0869 18.0178 44.087H18.0179C18.6709 44.087 19.1655 43.8804 19.4877 43.473C19.7317 43.1647 19.848 42.7606 19.8154 42.335C19.7909 42.0149 19.6869 41.708 19.5378 41.4227C19.9139 41.2747 20.2311 41.0913 20.4854 40.8788C22.2416 41.8674 23.5502 43.584 24.0168 45.627L18.1891 48.1065C16.4832 48.8324 15.4856 50.814 15.8169 52.8184ZM46.156 53.7307C45.7497 54.2755 45.1517 54.5881 44.5156 54.5883L43.6508 54.5887L43.1105 51.3212C43.0275 50.82 42.5979 50.4886 42.1502 50.5818C41.7028 50.6746 41.4072 51.156 41.49 51.6572L41.9749 54.5893L39.1398 54.5905L38.7745 52.381C38.6916 51.8798 38.2618 51.5488 37.8142 51.6416C37.3668 51.7344 37.0712 52.2158 37.154 52.717L37.4639 54.5913L30.8693 54.5941L30.373 51.5932C30.2899 51.0921 29.8604 50.7611 29.4127 50.854C28.9652 50.9467 28.6697 51.4283 28.7525 51.9295L29.1934 54.5948L19.5646 54.599C19.5643 54.599 19.5641 54.599 19.5639 54.599C18.5343 54.599 17.6518 53.7808 17.4653 52.6529L17.437 52.4819C17.2507 51.3553 17.813 50.2408 18.774 49.8318L22.0124 48.4539L22.2537 49.9123C22.3272 50.3566 22.6735 50.6672 23.0628 50.6672C23.1127 50.6672 23.1632 50.662 23.214 50.6516C23.6613 50.5587 23.9569 50.0772 23.8739 49.576L23.5781 47.7878L28.3851 45.7425C28.8105 45.5615 29.0244 45.0285 28.8628 44.552C28.7012 44.0755 28.2247 43.836 27.8 44.017L25.5631 44.9688C24.9355 42.4804 23.3234 40.4018 21.1856 39.2109C21.1185 38.7276 20.811 38.0291 19.6987 37.5371C18.9715 37.2155 18.0221 37.0384 17.0256 37.0384C16.3399 37.0384 15.685 37.1232 15.1069 37.2776V36.7202C15.1069 36.2106 14.7381 35.7974 14.2829 35.7974C14.0905 35.7974 13.9141 35.8717 13.7738 35.9955C13.6438 35.0329 13.5711 34.0552 13.559 33.0637H40.3972C40.8524 33.0637 41.2212 32.6505 41.2212 32.1408C41.2212 31.6312 40.8524 31.218 40.3972 31.218H40.06C40.5847 30.0077 40.8811 28.6507 40.8811 27.2166C40.8811 26.4024 40.3249 25.7317 39.6161 25.6555C39.9247 25.3296 40.3098 25.1098 40.7392 25.026C40.865 25.0016 40.9926 24.9891 41.1188 24.9891C42.1826 24.9891 43.0865 25.8415 43.2681 27.0156C43.2891 27.1515 43.2999 27.2918 43.3 27.4327C43.3005 27.9106 43.6268 28.309 44.0519 28.3509C45.0366 28.4477 45.8422 29.2772 46.0111 30.3679C46.0559 30.6579 46.0503 30.9441 46.0054 31.218H45.1213C44.6661 31.218 44.2973 31.6312 44.2973 32.1408C44.2973 32.6505 44.6661 33.0637 45.1213 33.0637H51.5254C51.505 34.7565 51.3103 36.4102 50.9472 38.0146L46.4817 40.9669C46.2086 39.9023 45.5738 38.9993 44.6992 38.451C43.7182 37.8362 42.5525 37.7401 41.5011 38.1873L32.3044 42.1004C31.8789 42.2814 31.6651 42.8145 31.8267 43.2909C31.9883 43.7675 32.4647 44.0067 32.8895 43.8259L34.1011 43.3105L34.4772 45.5852C34.5507 46.0296 34.897 46.3403 35.2865 46.3403C35.3362 46.3403 35.3868 46.3351 35.4375 46.3246C35.8849 46.2319 36.1805 45.7504 36.0977 45.2492L35.6669 42.6443L42.0861 39.913C42.6809 39.6601 43.3399 39.7143 43.8943 40.0619C44.4478 40.4088 44.8313 41.0068 44.9464 41.7023L46.6133 51.7816C46.7283 52.4767 46.5616 53.187 46.156 53.7307ZM49.0959 46.5071C48.7115 46.5862 48.4297 46.9568 48.421 47.3945C48.4125 47.8322 48.6796 48.2163 49.0605 48.3142L55.1953 49.8901L55.042 51.0417L47.9302 49.6103L46.8185 42.8878L53.013 38.7923L53.529 39.8157L48.3041 43.7275C47.9793 43.9707 47.8516 44.4361 47.9986 44.8417C48.1455 45.2472 48.5267 45.4815 48.911 45.4024L57.1184 43.7138L57.3012 44.8188L49.0959 46.5071Z" fill="#071F41"/>
</svg>
