
<svg version="1.1" id="Capa_1" xmlns="http://www.w3.org/2000/svg" xmlns:xlink="http://www.w3.org/1999/xlink" x="0px" y="0px"
	 viewBox="0 0 457.728 457.728" fill="#F5F6FA" xml:space="preserve">
<g>
	<g>
		<path d="M228.864,0C102.912,0,0,102.4,0,228.864c0,125.952,102.4,228.864,228.864,228.864s228.864-102.912,228.864-228.864
			S354.816,0,228.864,0z M228.864,117.248c38.912,0,71.168,31.744,71.168,71.168c0,38.912-31.744,71.168-71.168,71.168
			s-71.168-32.256-71.168-71.68C157.696,148.992,189.952,117.248,228.864,117.248z M228.864,410.624
			c-43.52,0-83.456-15.36-114.688-40.96c32.768-35.84,72.704-55.808,114.688-55.808s82.432,19.456,114.688,55.808
			C312.32,395.264,272.384,410.624,228.864,410.624z"/>
	</g>
</g>
<g>
</g>
<g>
</g>
<g>
</g>
<g>
</g>
<g>
</g>
<g>
</g>
<g>
</g>
<g>
</g>
<g>
</g>
<g>
</g>
<g>
</g>
<g>
</g>
<g>
</g>
<g>
</g>
<g>
</g>
</svg>
